<svg width="60" height="60" viewBox="0 0 60 60" version="1.1" xmlns="http://www.w3.org/2000/svg" xmlns:xlink="http://www.w3.org/1999/xlink">
<title>ai</title>
<desc>Created using Figma</desc>
<g id="Canvas" transform="translate(-15 -1701)">
<g id="ai">
<g id="Vector">
<use xlink:href="#path0_fill" transform="translate(15 1701)" fill="#F6F6F6"/>
<mask id="mask0_outline_ins">
<use xlink:href="#path0_fill" fill="white" transform="translate(15 1701)"/>
</mask>
<g mask="url(#mask0_outline_ins)">
<use xlink:href="#path1_stroke_2x" transform="translate(15 1701)" fill="#C18D8D"/>
</g>
</g>
<g id="AI">
<use xlink:href="#path2_fill" transform="translate(38.5 1721.5)" fill="#888888"/>
</g>
</g>
</g>
<defs>
<path id="path0_fill" d="M 60 0L 0 0L 0 60L 60 60L 60 0Z"/>
<path id="path1_stroke_2x" d="M 0 0L 0 -2L -2 -2L -2 0L 0 0ZM 60 0L 62 0L 62 -2L 60 -2L 60 0ZM 60 60L 60 62L 62 62L 62 60L 60 60ZM 0 60L -2 60L -2 62L 0 62L 0 60ZM 0 2L 60 2L 60 -2L 0 -2L 0 2ZM 58 0L 58 60L 62 60L 62 0L 58 0ZM 60 58L 0 58L 0 62L 60 62L 60 58ZM 2 60L 2 0L -2 0L -2 60L 2 60Z"/>
<path id="path2_fill" d="M 8.87305 15L 7.60156 15L 6.5625 12.252L 2.40625 12.252L 1.42871 15L 0.150391 15L 3.91016 5.19727L 5.09961 5.19727L 8.87305 15ZM 6.18652 11.2197L 4.64844 7.04297C 4.59831 6.90625 4.54818 6.6875 4.49805 6.38672L 4.4707 6.38672C 4.42513 6.66471 4.37272 6.88346 4.31348 7.04297L 2.78906 11.2197L 6.18652 11.2197ZM 11.4707 15L 10.3223 15L 10.3223 5.19727L 11.4707 5.19727L 11.4707 15Z"/>
</defs>
</svg>
