<svg width="90" height="90" viewBox="0 0 90 90" version="1.1" xmlns="http://www.w3.org/2000/svg" xmlns:xlink="http://www.w3.org/1999/xlink">
<title>programming-code</title>
<desc>Created using Figma</desc>
<g id="Canvas" transform="translate(-7410 343)">
<g id="programming-code">
<g id="Group">
<g id="Group">
<g id="Group">
<g id="Vector">
<use xlink:href="#path0_fill" transform="translate(7410 -343)" fill="#FFFFFF"/>
</g>
<g id="Vector">
<use xlink:href="#path1_fill" transform="translate(7427.69 -302.139)" fill="#FFFFFF"/>
</g>
<g id="Vector">
<use xlink:href="#path2_fill" transform="translate(7447.38 -310.961)" fill="#FFFFFF"/>
</g>
<g id="Vector">
<use xlink:href="#path3_fill" transform="translate(7462.21 -302.139)" fill="#FFFFFF"/>
</g>
</g>
</g>
</g>
</g>
</g>
<defs>
<path id="path0_fill" d="M 84.5922 5.39629e-08L 5.40847 5.39629e-08C 2.42564 5.39629e-08 0 2.67083 0 5.95372L 0 84.0465C 0 87.3294 2.42564 90 5.40847 90L 84.5925 90C 87.5744 90 90 87.3294 90 84.0465L 90 5.95372C 90.0007 2.67108 87.5741 5.39629e-08 84.5922 5.39629e-08ZM 68.2851 9.99747C 68.2851 8.78344 69.1792 7.79903 70.2819 7.79903L 72.2791 7.79903C 73.3824 7.79903 74.2758 8.78319 74.2758 9.99747L 74.2758 12.4889C 74.2758 13.703 73.3817 14.6871 72.2791 14.6871L 70.2819 14.6871C 69.1792 14.6871 68.2851 13.703 68.2851 12.4889L 68.2851 9.99747ZM 58.9986 9.99747C 58.9986 8.78344 59.8931 7.79903 60.9958 7.79903L 62.9925 7.79903C 64.0952 7.79903 64.9897 8.78319 64.9897 9.99747L 64.9897 12.4889C 64.9897 13.703 64.0952 14.6871 62.9925 14.6871L 60.9958 14.6871C 59.8931 14.6871 58.9986 13.703 58.9986 12.4889L 58.9986 9.99747ZM 83.5098 82.8555L 6.49025 82.8555L 6.49025 21.2908L 83.5098 21.2908L 83.5098 82.8555ZM 83.5623 12.4889C 83.5623 13.703 82.6682 14.6871 81.5656 14.6871L 79.5684 14.6871C 78.4648 14.6871 77.5714 13.703 77.5714 12.4889L 77.5714 9.99747C 77.5714 8.78344 78.4655 7.79903 79.5684 7.79903L 81.5656 7.79903C 82.6685 7.79903 83.5623 8.78319 83.5623 9.99747L 83.5623 12.4889Z"/>
<path id="path1_fill" d="M 1.62727 13.5337L 16.104 20.9443C 16.4783 21.135 16.8767 21.2317 17.2886 21.2317C 17.8251 21.2317 18.3481 21.064 18.8027 20.7457C 19.6167 20.173 20.103 19.1972 20.103 18.1352L 20.103 18.0539C 20.103 16.8535 19.4639 15.7511 18.4746 15.2454L 9.4203 10.6146L 18.4746 5.98328C 19.4639 5.47705 20.103 4.37492 20.103 3.17503L 20.103 3.09445C 20.103 2.03097 19.6167 1.05464 18.8027 0.483996C 18.3527 0.167477 17.8283 -1.88099e-06 17.287 -1.88099e-06C 16.8787 -1.88099e-06 16.4693 0.0987707 16.1029 0.286206L 1.62704 7.69596C 0.638652 8.20219 4.68059e-07 9.30482 4.68059e-07 10.5042L 4.68059e-07 10.7257C -0.000229015 11.9234 0.637964 13.0255 1.62727 13.5337Z"/>
<path id="path2_fill" d="M 0.540881 37.4494C 1.06892 38.2449 1.91824 38.72 2.81277 38.72L 2.88529 38.72C 4.11348 38.72 5.18953 37.8546 5.56382 36.5686L 15.1 4.04249C 15.3735 3.1038 15.2219 2.0676 14.6936 1.27062C 14.1655 0.474904 13.3162 9.25079e-07 12.4215 9.25079e-07L 12.3492 9.25079e-07C 11.1205 9.25079e-07 10.0433 0.865182 9.66905 2.15121L 0.131942 34.6798C -0.139537 35.6198 0.0132982 36.6545 0.540881 37.4494Z"/>
<path id="path3_fill" d="M 1.26059e-06 3.17478C 1.26059e-06 4.37341 0.638654 5.47579 1.62819 5.98454L 10.6825 10.6146L 1.62819 15.2449C 0.639113 15.7511 1.26059e-06 16.8535 1.26059e-06 18.0534L 1.26059e-06 18.1347C 1.26059e-06 19.197 0.485818 20.1728 1.30071 20.7457C 1.75371 21.0635 2.27694 21.2317 2.81416 21.2317C 3.22562 21.2317 3.62378 21.135 4.00059 20.9432L 18.4764 13.533C 19.4648 13.0255 20.1034 11.9234 20.1034 10.7252L 20.1034 10.5037C 20.1034 9.30432 19.4648 8.20168 18.4755 7.69546L 3.99967 0.285701C 3.63456 0.098771 3.22562 -1.88099e-06 2.81737 -1.88099e-06C 2.27694 -1.88099e-06 1.75188 0.166973 1.30186 0.482986C 0.486963 1.05464 0.000687582 2.03072 0.000687582 3.0942L 0.000687582 3.17453L 1.26059e-06 3.17453L 1.26059e-06 3.17478Z"/>
</defs>
</svg>
