<svg width="90" height="91" viewBox="0 0 90 91" version="1.1" xmlns="http://www.w3.org/2000/svg" xmlns:xlink="http://www.w3.org/1999/xlink">
<title>html-04</title>
<desc>Created using Figma</desc>
<g id="Canvas" transform="translate(136 -1355)">
<g id="html-04">
<g id="Vector">
<use xlink:href="#path0_fill" transform="translate(-136 1355.65)" fill="#F6F6F6"/>
<mask id="mask0_outline_ins">
<use xlink:href="#path0_fill" fill="white" transform="translate(-136 1355.65)"/>
</mask>
<g mask="url(#mask0_outline_ins)">
<use xlink:href="#path1_stroke_2x" transform="translate(-136 1355.65)" fill="#C18D8D"/>
</g>
</g>
<g id="CSS 3">
<use xlink:href="#path2_fill" transform="translate(-113.5 1389)" fill="#888888"/>
</g>
</g>
</g>
<defs>
<path id="path0_fill" d="M 90 0L 0 0L 0 90L 90 90L 90 0Z"/>
<path id="path1_stroke_2x" d="M 0 0L 0 -2L -2 -2L -2 0L 0 0ZM 90 0L 92 0L 92 -2L 90 -2L 90 0ZM 90 90L 90 92L 92 92L 92 90L 90 90ZM 0 90L -2 90L -2 92L 0 92L 0 90ZM 0 2L 90 2L 90 -2L 0 -2L 0 2ZM 88 0L 88 90L 92 90L 92 0L 88 0ZM 90 88L 0 88L 0 92L 90 92L 90 88ZM 2 90L 2 0L -2 0L -2 90L 2 90Z"/>
<path id="path2_fill" d="M 10.2305 18.4727C 9.29883 18.9648 8.13867 19.2109 6.75 19.2109C 4.95703 19.2109 3.52148 18.6338 2.44336 17.4795C 1.36523 16.3252 0.826172 14.8105 0.826172 12.9355C 0.826172 10.9199 1.43262 9.29102 2.64551 8.04883C 3.8584 6.80664 5.39648 6.18555 7.25977 6.18555C 8.45508 6.18555 9.44531 6.3584 10.2305 6.7041L 10.2305 8.27734C 9.32813 7.77344 8.33203 7.52148 7.24219 7.52148C 5.79492 7.52148 4.62012 8.00488 3.71777 8.97168C 2.82129 9.93848 2.37305 11.2305 2.37305 12.8477C 2.37305 14.3828 2.79199 15.6074 3.62988 16.5215C 4.47363 17.4297 5.57813 17.8838 6.94336 17.8838C 8.20898 17.8838 9.30469 17.6025 10.2305 17.04L 10.2305 18.4727ZM 12.208 18.4902L 12.208 16.75C 12.4072 16.9258 12.6445 17.084 12.9199 17.2246C 13.2012 17.3652 13.4941 17.4854 13.7988 17.585C 14.1094 17.6787 14.4199 17.752 14.7305 17.8047C 15.041 17.8574 15.3281 17.8838 15.5918 17.8838C 16.5 17.8838 17.1768 17.7168 17.6221 17.3828C 18.0732 17.043 18.2988 16.5566 18.2988 15.9238C 18.2988 15.584 18.2227 15.2881 18.0703 15.0361C 17.9238 14.7842 17.7188 14.5557 17.4551 14.3506C 17.1914 14.1396 16.8779 13.9404 16.5146 13.7529C 16.1572 13.5596 15.7705 13.3574 15.3545 13.1465C 14.915 12.9238 14.5049 12.6982 14.124 12.4697C 13.7432 12.2412 13.4121 11.9893 13.1309 11.7139C 12.8496 11.4385 12.627 11.1279 12.4629 10.7822C 12.3047 10.4307 12.2256 10.0205 12.2256 9.55176C 12.2256 8.97754 12.3516 8.47949 12.6035 8.05762C 12.8555 7.62988 13.1865 7.27832 13.5967 7.00293C 14.0068 6.72754 14.4727 6.52246 14.9941 6.3877C 15.5215 6.25293 16.0576 6.18555 16.6025 6.18555C 17.8447 6.18555 18.75 6.33496 19.3184 6.63379L 19.3184 8.29492C 18.5742 7.7793 17.6191 7.52148 16.4531 7.52148C 16.1309 7.52148 15.8086 7.55664 15.4863 7.62695C 15.1641 7.69141 14.877 7.7998 14.625 7.95215C 14.373 8.10449 14.168 8.30078 14.0098 8.54102C 13.8516 8.78125 13.7725 9.07422 13.7725 9.41992C 13.7725 9.74219 13.8311 10.0205 13.9482 10.2549C 14.0713 10.4893 14.25 10.7031 14.4844 10.8965C 14.7187 11.0898 15.0029 11.2773 15.3369 11.459C 15.6768 11.6406 16.0664 11.8398 16.5059 12.0566C 16.957 12.2793 17.3848 12.5137 17.7891 12.7598C 18.1934 13.0059 18.5479 13.2783 18.8525 13.5771C 19.1572 13.876 19.3975 14.207 19.5732 14.5703C 19.7549 14.9336 19.8457 15.3496 19.8457 15.8184C 19.8457 16.4395 19.7227 16.9668 19.4766 17.4004C 19.2363 17.8281 18.9082 18.1768 18.4922 18.4463C 18.082 18.7158 17.6074 18.9092 17.0684 19.0264C 16.5293 19.1494 15.9609 19.2109 15.3633 19.2109C 15.1641 19.2109 14.918 19.1934 14.625 19.1582C 14.332 19.1289 14.0332 19.082 13.7285 19.0176C 13.4238 18.959 13.1338 18.8857 12.8584 18.7979C 12.5889 18.7041 12.3721 18.6016 12.208 18.4902ZM 21.7705 18.4902L 21.7705 16.75C 21.9697 16.9258 22.207 17.084 22.4824 17.2246C 22.7637 17.3652 23.0566 17.4854 23.3613 17.585C 23.6719 17.6787 23.9824 17.752 24.293 17.8047C 24.6035 17.8574 24.8906 17.8838 25.1543 17.8838C 26.0625 17.8838 26.7393 17.7168 27.1846 17.3828C 27.6357 17.043 27.8613 16.5566 27.8613 15.9238C 27.8613 15.584 27.7852 15.2881 27.6328 15.0361C 27.4863 14.7842 27.2812 14.5557 27.0176 14.3506C 26.7539 14.1396 26.4404 13.9404 26.0771 13.7529C 25.7197 13.5596 25.333 13.3574 24.917 13.1465C 24.4775 12.9238 24.0674 12.6982 23.6865 12.4697C 23.3057 12.2412 22.9746 11.9893 22.6934 11.7139C 22.4121 11.4385 22.1895 11.1279 22.0254 10.7822C 21.8672 10.4307 21.7881 10.0205 21.7881 9.55176C 21.7881 8.97754 21.9141 8.47949 22.166 8.05762C 22.418 7.62988 22.749 7.27832 23.1592 7.00293C 23.5693 6.72754 24.0352 6.52246 24.5566 6.3877C 25.084 6.25293 25.6201 6.18555 26.165 6.18555C 27.4072 6.18555 28.3125 6.33496 28.8809 6.63379L 28.8809 8.29492C 28.1367 7.7793 27.1816 7.52148 26.0156 7.52148C 25.6934 7.52148 25.3711 7.55664 25.0488 7.62695C 24.7266 7.69141 24.4395 7.7998 24.1875 7.95215C 23.9355 8.10449 23.7305 8.30078 23.5723 8.54102C 23.4141 8.78125 23.335 9.07422 23.335 9.41992C 23.335 9.74219 23.3936 10.0205 23.5107 10.2549C 23.6338 10.4893 23.8125 10.7031 24.0469 10.8965C 24.2812 11.0898 24.5654 11.2773 24.8994 11.459C 25.2393 11.6406 25.6289 11.8398 26.0684 12.0566C 26.5195 12.2793 26.9473 12.5137 27.3516 12.7598C 27.7559 13.0059 28.1104 13.2783 28.415 13.5771C 28.7197 13.876 28.96 14.207 29.1357 14.5703C 29.3174 14.9336 29.4082 15.3496 29.4082 15.8184C 29.4082 16.4395 29.2852 16.9668 29.0391 17.4004C 28.7988 17.8281 28.4707 18.1768 28.0547 18.4463C 27.6445 18.7158 27.1699 18.9092 26.6309 19.0264C 26.0918 19.1494 25.5234 19.2109 24.9258 19.2109C 24.7266 19.2109 24.4805 19.1934 24.1875 19.1582C 23.8945 19.1289 23.5957 19.082 23.291 19.0176C 22.9863 18.959 22.6963 18.8857 22.4209 18.7979C 22.1514 18.7041 21.9346 18.6016 21.7705 18.4902ZM 43.585 15.4316C 43.585 16 43.4766 16.5186 43.2598 16.9873C 43.0488 17.4502 42.7471 17.8486 42.3545 18.1826C 41.9678 18.5107 41.502 18.7656 40.957 18.9473C 40.4121 19.1289 39.8115 19.2197 39.1553 19.2197C 37.9541 19.2197 36.999 18.9912 36.29 18.5342L 36.29 16.9873C 37.1396 17.6553 38.1123 17.9893 39.208 17.9893C 39.6475 17.9893 40.043 17.9336 40.3945 17.8223C 40.752 17.7109 41.0566 17.5498 41.3086 17.3389C 41.5664 17.1279 41.7627 16.873 41.8975 16.5742C 42.0381 16.2754 42.1084 15.9385 42.1084 15.5635C 42.1084 13.917 40.9365 13.0938 38.5928 13.0938L 37.5469 13.0938L 37.5469 11.8721L 38.54 11.8721C 40.6143 11.8721 41.6514 11.0986 41.6514 9.55176C 41.6514 8.12207 40.8604 7.40723 39.2783 7.40723C 38.3877 7.40723 37.5527 7.70605 36.7734 8.30371L 36.7734 6.90625C 37.5762 6.42578 38.5312 6.18555 39.6387 6.18555C 40.166 6.18555 40.6436 6.25879 41.0713 6.40527C 41.499 6.55176 41.8652 6.75684 42.1699 7.02051C 42.4746 7.28418 42.709 7.60059 42.873 7.96973C 43.043 8.33887 43.1279 8.74609 43.1279 9.19141C 43.1279 10.8496 42.29 11.916 40.6143 12.3906L 40.6143 12.4258C 41.042 12.4727 41.4375 12.5781 41.8008 12.7422C 42.1641 12.9004 42.4775 13.1084 42.7412 13.3662C 43.0049 13.624 43.21 13.9287 43.3564 14.2803C 43.5088 14.626 43.585 15.0098 43.585 15.4316Z"/>
</defs>
</svg>
