<svg width="60" height="61" viewBox="0 0 60 61" version="1.1" xmlns="http://www.w3.org/2000/svg" xmlns:xlink="http://www.w3.org/1999/xlink">
<title>git</title>
<desc>Created using Figma</desc>
<g id="Canvas" transform="translate(165 -1701)">
<g id="git">
<g id="Vector">
<use xlink:href="#path0_fill" transform="translate(-165 1701.35)" fill="#F6F6F6"/>
<mask id="mask0_outline_ins">
<use xlink:href="#path0_fill" fill="white" transform="translate(-165 1701.35)"/>
</mask>
<g mask="url(#mask0_outline_ins)">
<use xlink:href="#path1_stroke_2x" transform="translate(-165 1701.35)" fill="#C18D8D"/>
</g>
</g>
<g id="Git">
<use xlink:href="#path2_fill" transform="translate(-144 1721.5)" fill="#888888"/>
</g>
</g>
</g>
<defs>
<path id="path0_fill" d="M 60 0L 0 0L 0 60L 60 60L 60 0Z"/>
<path id="path1_stroke_2x" d="M 0 0L 0 -2L -2 -2L -2 0L 0 0ZM 60 0L 62 0L 62 -2L 60 -2L 60 0ZM 60 60L 60 62L 62 62L 62 60L 60 60ZM 0 60L -2 60L -2 62L 0 62L 0 60ZM 0 2L 60 2L 60 -2L 0 -2L 0 2ZM 58 0L 58 60L 62 60L 62 0L 58 0ZM 60 58L 0 58L 0 62L 60 62L 60 58ZM 2 60L 2 0L -2 0L -2 60L 2 60Z"/>
<path id="path2_fill" d="M 8.61328 14.3301C 7.62891 14.8861 6.53516 15.1641 5.33203 15.1641C 3.93294 15.1641 2.80046 14.7129 1.93457 13.8105C 1.07324 12.9082 0.642578 11.7142 0.642578 10.2285C 0.642578 8.71094 1.12109 7.4668 2.07812 6.49609C 3.03971 5.52083 4.25651 5.0332 5.72852 5.0332C 6.79492 5.0332 7.69043 5.20638 8.41504 5.55273L 8.41504 6.82422C 7.62207 6.32292 6.68327 6.07227 5.59863 6.07227C 4.50033 6.07227 3.60026 6.45052 2.89844 7.20703C 2.19661 7.96354 1.8457 8.94336 1.8457 10.1465C 1.8457 11.3861 2.17155 12.3613 2.82324 13.0723C 3.47493 13.7786 4.35905 14.1318 5.47559 14.1318C 6.24121 14.1318 6.9043 13.9792 7.46484 13.6738L 7.46484 10.9258L 5.31836 10.9258L 5.31836 9.88672L 8.61328 9.88672L 8.61328 14.3301ZM 11.3203 6.22266C 11.1198 6.22266 10.9489 6.1543 10.8076 6.01758C 10.6663 5.88086 10.5957 5.70768 10.5957 5.49805C 10.5957 5.28841 10.6663 5.11523 10.8076 4.97852C 10.9489 4.83724 11.1198 4.7666 11.3203 4.7666C 11.5254 4.7666 11.6986 4.83724 11.8398 4.97852C 11.9857 5.11523 12.0586 5.28841 12.0586 5.49805C 12.0586 5.69857 11.9857 5.86947 11.8398 6.01074C 11.6986 6.15202 11.5254 6.22266 11.3203 6.22266ZM 11.8672 15L 10.7461 15L 10.7461 8L 11.8672 8L 11.8672 15ZM 17.3838 14.9316C 17.1195 15.0775 16.7708 15.1504 16.3379 15.1504C 15.112 15.1504 14.499 14.4668 14.499 13.0996L 14.499 8.95703L 13.2959 8.95703L 13.2959 8L 14.499 8L 14.499 6.29102L 15.6201 5.92871L 15.6201 8L 17.3838 8L 17.3838 8.95703L 15.6201 8.95703L 15.6201 12.9014C 15.6201 13.3708 15.6999 13.7057 15.8594 13.9062C 16.0189 14.1068 16.2832 14.207 16.6523 14.207C 16.9349 14.207 17.1787 14.1296 17.3838 13.9746L 17.3838 14.9316Z"/>
</defs>
</svg>
