<svg width="42" height="45" viewBox="0 0 42 45" version="1.1" xmlns="http://www.w3.org/2000/svg" xmlns:xlink="http://www.w3.org/1999/xlink">
<title>github</title>
<desc>Created using Figma</desc>
<g id="Canvas" transform="translate(-1834 -732)">
<g id="github">
<g id="Canvas">
<g id="github">
<g id="Vector">
<g id="Vector">
<use xlink:href="#path0_fill" transform="translate(1834.02 732.1)" fill="#f5f5f5" class="svgInternalID"/>
</g>
</g>
</g>
</g>
</g>
</g>
<defs>
<path id="path0_fill" d="M 0 29.6911L 0 29.5114C 0.101095 28.9568 0.53788 28.8892 0.992809 28.8535C 2.33038 28.7465 3.46317 29.236 4.50912 30.0009C 5.49674 30.7263 6.08387 31.7856 6.82783 32.7048C 8.08893 34.2728 9.67924 35.1537 11.7595 35.0454C 12.5213 35.0006 13.2728 34.8495 13.9914 34.5966C 14.1827 34.5407 14.3555 34.4358 14.4921 34.2927C 14.6287 34.1496 14.7243 33.9733 14.769 33.782C 15.0192 32.8488 15.3652 31.959 15.9601 31.175C 16.1779 30.8894 16.1001 30.753 15.6828 30.6804C 14.7366 30.5159 13.7956 30.3272 12.865 30.0965C 9.38892 29.2309 6.52195 27.5086 4.67631 24.384C 4.03464 23.2743 3.56709 22.0756 3.28949 20.8285C 2.9198 19.3113 2.73532 17.756 2.73995 16.1958C 2.77365 13.5034 3.42817 10.969 5.15587 8.80184C 5.26863 8.66033 5.37232 8.51245 5.47989 8.36585C 5.58058 8.23329 5.64817 8.0793 5.67722 7.91632C 5.70626 7.75334 5.69594 7.58592 5.64709 7.42758C 5.19591 5.7083 5.16128 3.90887 5.54599 2.17403C 5.66177 1.66207 5.81069 1.15791 5.99185 0.66464C 6.17978 0.127939 6.35217 0.018305 6.93671 0.00300708C 8.41555 -0.0377873 9.78812 0.33956 11.1244 0.947651C 12.1768 1.42826 13.1826 1.99173 14.1832 2.56285C 14.3765 2.68326 14.5924 2.76437 14.8181 2.80137C 15.0439 2.83837 15.2748 2.83053 15.4974 2.7783C 17.1136 2.39384 18.7622 2.15573 20.4226 2.06695C 22.0812 1.97148 23.7448 2.00345 25.3983 2.16256C 26.6714 2.28764 27.9349 2.49504 29.1803 2.7834C 29.6445 2.8857 30.1309 2.80954 30.5399 2.5705C 31.884 1.86807 33.1801 1.08023 34.5941 0.501463C 35.618 0.0833205 36.6679 0.0246784 37.7514 0.0361518C 37.96 0.028699 38.1651 0.0903647 38.3339 0.211262C 38.5026 0.332159 38.6252 0.505286 38.682 0.702885C 39.0462 1.75461 39.3637 2.81654 39.3715 3.94349C 39.3793 5.07043 39.4078 6.22287 39.063 7.33197C 38.9555 7.67872 39.0397 8.01017 39.1991 8.3327C 39.5089 8.95482 39.9198 9.51574 40.2801 10.106C 41.1858 11.5551 41.7122 13.2024 41.812 14.9006C 41.9041 16.5502 41.9754 18.2049 41.6397 19.8291C 41.1809 22.0524 40.3747 24.1507 38.9269 25.9559C 37.9691 27.1491 36.7638 28.0568 35.4016 28.7681C 33.4574 29.7803 31.3474 30.2278 29.2166 30.6192C 29.157 30.6306 29.0948 30.6319 29.0351 30.6434C 28.5608 30.7339 28.5167 30.8372 28.7759 31.2196C 29.6832 32.5391 30.0992 34.0242 30.1239 35.591C 30.1614 37.9443 30.1316 40.2989 30.1355 42.6535C 30.1171 43.193 30.1366 43.7331 30.1938 44.27C 30.2599 44.7327 30.1407 44.8513 29.6923 44.8513C 24.8138 44.8513 19.9357 44.8513 15.058 44.8513C 14.5966 44.8513 14.5396 44.785 14.515 44.2827C 14.4502 43.0079 14.6588 41.7395 14.6044 40.4583C 14.5914 40.1587 14.5616 39.8616 14.5344 39.5659C 14.4968 39.1745 14.292 39.0687 13.9265 39.0764C 12.9376 39.0955 11.9513 39.2255 10.9598 39.172C 9.54574 39.0955 8.17577 38.8647 6.94189 38.1177C 5.913 37.4908 5.07416 36.6037 4.51301 35.5489C 4.08659 34.7713 3.78201 33.9388 3.28819 33.1892C 2.72921 32.3079 1.97626 31.5612 1.08483 31.0042C 0.56769 30.688 0.133498 30.3132 0 29.6911Z"/>
</defs>
</svg>
