<svg width="42" height="45" viewBox="0 0 42 45" version="1.1" xmlns="http://www.w3.org/2000/svg" xmlns:xlink="http://www.w3.org/1999/xlink">
<title>github</title>
<desc>Created using Figma</desc>
<g id="Canvas" transform="translate(136 -1939)">
<g id="github">
<g id="Vector">
<use xlink:href="#path0_fill" transform="translate(-135.983 1939.1)" fill="#247BA0"/>
</g>
<g id="Vector">
<use xlink:href="#path1_fill" transform="translate(-136 1939)" fill="#F6F6F6"/>
</g>
</g>
</g>
<defs>
<path id="path0_fill" d="M 0 29.6911L 0 29.5114C 0.101095 28.9568 0.53788 28.8892 0.992809 28.8535C 2.33038 28.7465 3.46317 29.236 4.50912 30.0009C 5.49674 30.7263 6.08387 31.7856 6.82783 32.7048C 8.08893 34.2728 9.67924 35.1537 11.7595 35.0454C 12.5213 35.0006 13.2728 34.8495 13.9914 34.5966C 14.1827 34.5407 14.3555 34.4358 14.4921 34.2927C 14.6287 34.1496 14.7243 33.9733 14.769 33.782C 15.0192 32.8488 15.3652 31.959 15.9601 31.175C 16.1779 30.8894 16.1001 30.753 15.6828 30.6804C 14.7366 30.5159 13.7956 30.3272 12.865 30.0965C 9.38892 29.2309 6.52195 27.5086 4.67631 24.384C 4.03464 23.2743 3.56709 22.0756 3.28949 20.8285C 2.9198 19.3113 2.73532 17.756 2.73995 16.1958C 2.77365 13.5034 3.42817 10.969 5.15587 8.80184C 5.26863 8.66033 5.37232 8.51245 5.47989 8.36585C 5.58058 8.23329 5.64817 8.0793 5.67722 7.91632C 5.70626 7.75334 5.69594 7.58592 5.64709 7.42758C 5.19591 5.7083 5.16128 3.90887 5.54599 2.17403C 5.66177 1.66207 5.81069 1.15791 5.99185 0.66464C 6.17978 0.127939 6.35217 0.018305 6.93671 0.00300707C 8.41555 -0.0377873 9.78812 0.33956 11.1244 0.947651C 12.1768 1.42826 13.1826 1.99173 14.1832 2.56285C 14.3765 2.68326 14.5924 2.76437 14.8181 2.80137C 15.0439 2.83837 15.2748 2.83053 15.4974 2.7783C 17.1136 2.39384 18.7622 2.15573 20.4226 2.06695C 22.0812 1.97148 23.7448 2.00345 25.3983 2.16256C 26.6714 2.28764 27.9349 2.49504 29.1803 2.7834C 29.6445 2.8857 30.1309 2.80954 30.5399 2.5705C 31.884 1.86807 33.1801 1.08023 34.5941 0.501463C 35.618 0.0833205 36.6679 0.0246784 37.7514 0.0361518C 37.96 0.028699 38.1651 0.0903647 38.3339 0.211262C 38.5026 0.332159 38.6252 0.505286 38.682 0.702885C 39.0462 1.75461 39.3637 2.81654 39.3715 3.94349C 39.3793 5.07043 39.4078 6.22287 39.063 7.33197C 38.9555 7.67872 39.0397 8.01017 39.1991 8.3327C 39.5089 8.95482 39.9198 9.51574 40.2801 10.106C 41.1858 11.5551 41.7122 13.2024 41.812 14.9006C 41.9041 16.5502 41.9754 18.2049 41.6397 19.8291C 41.1809 22.0524 40.3747 24.1507 38.9269 25.9559C 37.9691 27.1491 36.7638 28.0568 35.4016 28.7681C 33.4574 29.7803 31.3474 30.2278 29.2166 30.6192C 29.157 30.6306 29.0948 30.6319 29.0351 30.6434C 28.5608 30.7339 28.5167 30.8372 28.7759 31.2196C 29.6832 32.5391 30.0992 34.0242 30.1239 35.591C 30.1614 37.9443 30.1316 40.2989 30.1355 42.6535C 30.1171 43.193 30.1366 43.7331 30.1938 44.27C 30.2599 44.7327 30.1407 44.8513 29.6923 44.8513C 24.8138 44.8513 19.9357 44.8513 15.058 44.8513C 14.5966 44.8513 14.5396 44.785 14.515 44.2827C 14.4502 43.0079 14.6588 41.7395 14.6044 40.4583C 14.5914 40.1587 14.5616 39.8616 14.5344 39.5659C 14.4968 39.1745 14.292 39.0687 13.9265 39.0764C 12.9376 39.0955 11.9513 39.2255 10.9598 39.172C 9.54574 39.0955 8.17577 38.8647 6.94189 38.1177C 5.913 37.4908 5.07416 36.6037 4.51301 35.5489C 4.08659 34.7713 3.78201 33.9388 3.28819 33.1892C 2.72921 32.3079 1.97626 31.5612 1.08483 31.0042C 0.56769 30.688 0.133498 30.3132 0 29.6911Z"/>
<path id="path1_fill" d="M 0.0168687 29.7888C 0.493832 30.5167 1.27279 30.8992 1.93509 31.4091C 2.84236 32.1115 3.47226 33.0218 3.9894 34.0161C 4.50654 35.0105 4.91481 36.0699 5.70932 36.9138C 6.87581 38.1516 8.3391 38.7521 10.0098 38.9535C 11.4731 39.1345 12.9299 38.9994 14.3854 38.8796C 14.76 38.849 14.7742 39.0134 14.7833 39.2875C 14.8507 40.9971 14.7833 42.7053 14.7496 44.4136C 14.7418 44.7693 14.8338 44.8738 15.1967 44.8725C 19.9828 44.8623 24.7688 44.8623 29.5549 44.8725C 29.9528 44.8725 30.0889 44.745 29.9852 44.383C 29.9204 44.0901 29.8964 43.7899 29.9139 43.4906C 29.9139 41.0022 29.9139 38.5188 29.9139 36.0252C 29.9139 34.1627 29.4784 32.4341 28.229 30.9718C 27.8402 30.5257 28.378 30.6289 28.5051 30.606C 29.9878 30.3421 31.4692 30.0756 32.9118 29.6244C 34.9583 28.9869 36.8001 28.0104 38.2958 26.45C 39.4817 25.2109 40.2127 23.7245 40.7959 22.1539C 41.414 20.5379 41.7445 18.8293 41.7732 17.103C 41.7939 14.6095 41.3844 12.2103 39.9587 10.0711C 39.6489 9.60835 39.3715 9.12519 39.076 8.6535C 38.9433 8.44377 38.8578 8.20847 38.8254 7.96348C 38.7929 7.7185 38.8143 7.46952 38.8881 7.23335C 39.4635 5.06615 39.2549 2.92827 38.4992 0.835009C 38.3424 0.402844 37.9951 0.232018 37.5311 0.234567C 36.1248 0.243491 34.8352 0.673106 33.6052 1.29395C 32.6033 1.80388 31.6196 2.34313 30.6358 2.88365C 30.4181 3.01475 30.1761 3.10208 29.9238 3.14059C 29.6715 3.17911 29.414 3.16804 29.1661 3.10802C 25.7631 2.321 22.2458 2.12941 18.7753 2.542C 17.6866 2.66566 16.6067 2.85469 15.5415 3.10802C 15.2973 3.16985 15.0426 3.18092 14.7938 3.14053C 14.545 3.10014 14.3074 3.00918 14.0964 2.87345C 12.7134 2.04992 11.302 1.28502 9.77258 0.750871C 8.95569 0.461705 8.10463 0.276208 7.24001 0.198873C 6.60752 0.144055 6.43384 0.270263 6.22258 0.854132C 5.42677 3.04428 5.27643 5.2663 5.90503 7.51763C 5.9666 7.70306 5.97806 7.90105 5.93829 8.09215C 5.89852 8.28325 5.8089 8.46089 5.67822 8.60761C 4.21492 10.3388 3.38672 12.3352 3.10028 14.5572C 2.93688 15.9268 2.95125 17.3114 3.14305 18.6774C 3.33228 20.1358 3.61094 21.5751 4.17993 22.943C 5.55249 26.2231 8.01508 28.3444 11.3797 29.5147C 12.8936 30.0412 14.4619 30.3281 16.0366 30.5958C 16.2284 30.6276 16.4177 30.6697 16.6691 30.7233C 16.4099 31.0751 16.161 31.376 15.9472 31.6959C 15.4469 32.443 15.1592 33.2805 14.9453 34.1423C 14.8779 34.41 14.7496 34.6293 14.4994 34.7313C 12.5786 35.5128 10.6474 35.7384 8.73311 34.7224C 7.60681 34.1245 6.78897 33.199 6.07612 32.1727C 5.47862 31.3173 4.83446 30.5053 3.91423 29.9482C 2.994 29.3911 2.01545 29.0698 0.92284 29.1833C 0.57419 29.2215 0.21906 29.2674 0.00909249 29.6065C 0.00909249 19.8601 0.00606831 10.114 1.98605e-05 0.368424C 1.98605e-05 0.059917 0.0609363 3.50141e-07 0.374591 3.50141e-07C 14.1253 0.0101989 27.8756 0.0101989 41.6254 3.50141e-07C 41.9391 3.50141e-07 42 0.059917 42 0.368424C 41.9905 15.1224 41.9905 29.8768 42 44.6316C 42 44.9401 41.9391 45 41.6254 45C 27.8747 44.9898 14.1244 44.9898 0.374591 45C 0.0609363 45 -0.00127624 44.9401 1.98605e-05 44.6316C 0.0181652 39.6844 0.0237813 34.7368 0.0168687 29.7888Z"/>
</defs>
</svg>
