<svg width="90" height="90" viewBox="0 0 90 90" version="1.1" xmlns="http://www.w3.org/2000/svg" xmlns:xlink="http://www.w3.org/1999/xlink">
<title>html-01</title>
<desc>Created using Figma</desc>
<g id="Canvas" transform="translate(136 -1174)">
<g id="html-01">
<g id="Vector">
<use xlink:href="#path0_fill" transform="translate(-136 1174)" fill="#F6F6F6"/>
<mask id="mask0_outline_ins">
<use xlink:href="#path0_fill" fill="white" transform="translate(-136 1174)"/>
</mask>
<g mask="url(#mask0_outline_ins)">
<use xlink:href="#path1_stroke_2x" transform="translate(-136 1174)" fill="#C18D8D"/>
</g>
</g>
<g id="HTML 5">
<use xlink:href="#path2_fill" transform="translate(-122 1207)" fill="#888888"/>
</g>
</g>
</g>
<defs>
<path id="path0_fill" d="M 90 0L 0 0L 0 90L 90 90L 90 0Z"/>
<path id="path1_stroke_2x" d="M 0 0L 0 -2L -2 -2L -2 0L 0 0ZM 90 0L 92 0L 92 -2L 90 -2L 90 0ZM 90 90L 90 92L 92 92L 92 90L 90 90ZM 0 90L -2 90L -2 92L 0 92L 0 90ZM 0 2L 90 2L 90 -2L 0 -2L 0 2ZM 88 0L 88 90L 92 90L 92 0L 88 0ZM 90 88L 0 88L 0 92L 90 92L 90 88ZM 2 90L 2 0L -2 0L -2 90L 2 90Z"/>
<path id="path2_fill" d="M 11.127 19L 9.65039 19L 9.65039 13.252L 3.12891 13.252L 3.12891 19L 1.65234 19L 1.65234 6.39648L 3.12891 6.39648L 3.12891 11.9248L 9.65039 11.9248L 9.65039 6.39648L 11.127 6.39648L 11.127 19ZM 21.8848 7.73242L 18.2461 7.73242L 18.2461 19L 16.7695 19L 16.7695 7.73242L 13.1396 7.73242L 13.1396 6.39648L 21.8848 6.39648L 21.8848 7.73242ZM 36.7207 19L 35.2529 19L 35.2529 10.5449C 35.2529 9.87695 35.2939 9.05957 35.376 8.09277L 35.3408 8.09277C 35.2002 8.66113 35.0742 9.06836 34.9629 9.31445L 30.6562 19L 29.9355 19L 25.6377 9.38477C 25.5146 9.10352 25.3887 8.67285 25.2598 8.09277L 25.2246 8.09277C 25.2715 8.59668 25.2949 9.41992 25.2949 10.5625L 25.2949 19L 23.8711 19L 23.8711 6.39648L 25.8223 6.39648L 29.6895 15.1855C 29.9883 15.8594 30.1816 16.3633 30.2695 16.6973L 30.3223 16.6973C 30.5742 16.0059 30.7764 15.4902 30.9287 15.1504L 34.875 6.39648L 36.7207 6.39648L 36.7207 19ZM 46.582 19L 40.043 19L 40.043 6.39648L 41.5195 6.39648L 41.5195 17.6641L 46.582 17.6641L 46.582 19ZM 60.3193 15.1504C 60.3193 15.7656 60.2139 16.3223 60.0029 16.8203C 59.792 17.3184 59.4902 17.7461 59.0977 18.1035C 58.7109 18.4609 58.2422 18.7363 57.6914 18.9297C 57.1406 19.123 56.5283 19.2197 55.8545 19.2197C 54.6826 19.2197 53.8125 19.0439 53.2441 18.6924L 53.2441 17.1631C 54.0996 17.7139 54.9756 17.9893 55.8721 17.9893C 56.3291 17.9893 56.7393 17.9219 57.1025 17.7871C 57.4717 17.6523 57.7852 17.4648 58.043 17.2246C 58.3008 16.9844 58.4971 16.6943 58.6318 16.3545C 58.7725 16.0146 58.8428 15.6426 58.8428 15.2383C 58.8428 14.418 58.5674 13.7764 58.0166 13.3135C 57.4658 12.8447 56.666 12.6104 55.6172 12.6104C 55.4473 12.6104 55.2686 12.6133 55.0811 12.6191C 54.8936 12.625 54.7061 12.6338 54.5186 12.6455C 54.3311 12.6514 54.1465 12.6602 53.9648 12.6719C 53.7891 12.6836 53.6279 12.6982 53.4814 12.7158L 53.9121 6.39648L 59.7393 6.39648L 59.7393 7.69727L 55.1602 7.69727L 54.9053 11.3975C 55.0928 11.3857 55.292 11.377 55.5029 11.3711C 55.7139 11.3594 55.9014 11.3535 56.0654 11.3535C 56.7334 11.3535 57.3311 11.4414 57.8584 11.6172C 58.3857 11.793 58.8311 12.0449 59.1943 12.373C 59.5635 12.6953 59.8418 13.0938 60.0293 13.5684C 60.2227 14.0371 60.3193 14.5645 60.3193 15.1504Z"/>
</defs>
</svg>
