<svg width="90" height="91" viewBox="0 0 90 91" version="1.1" xmlns="http://www.w3.org/2000/svg" xmlns:xlink="http://www.w3.org/1999/xlink">
<title>imgres-01</title>
<desc>Created using Figma</desc>
<g id="Canvas" transform="translate(1580 230)">
<g id="imgres-01">
<g id="Vector">
<use xlink:href="#path0_fill" transform="translate(-1579.58 -229.532)" fill="#FFFFFF"/>
</g>
<g id="Vector">
<use xlink:href="#path1_fill" transform="translate(-1580 -230)" fill="#FFFFFF"/>
<use xlink:href="#path2_fill" transform="translate(-1580 -230)" fill="#FFFFFF"/>
<use xlink:href="#path3_fill" transform="translate(-1580 -230)" fill="#FFFFFF"/>
<use xlink:href="#path4_fill" transform="translate(-1580 -230)" fill="#FFFFFF"/>
</g>
<g id="Vector">
<use xlink:href="#path5_fill" transform="translate(-1572.36 -222.356)" fill="#336E7B" class="svgInternalID"/>
</g>
<g id="Vector">
<use xlink:href="#path6_fill" transform="translate(-1572.55 -222.501)" fill="#FFFFFF"/>
<use xlink:href="#path7_fill" transform="translate(-1572.55 -222.501)" fill="#FFFFFF"/>
<use xlink:href="#path8_fill" transform="translate(-1572.55 -222.501)" fill="#FFFFFF"/>
<use xlink:href="#path9_fill" transform="translate(-1572.55 -222.501)" fill="#FFFFFF"/>
</g>
<g id="Vector">
<use xlink:href="#path10_fill" transform="translate(-1572.23 -222.206)" fill="#FFFFFF"/>
<use xlink:href="#path11_fill" transform="translate(-1572.23 -222.206)" fill="#FFFFFF"/>
<use xlink:href="#path12_fill" transform="translate(-1572.23 -222.206)" fill="#FFFFFF"/>
<use xlink:href="#path13_fill" transform="translate(-1572.23 -222.206)" fill="#FFFFFF"/>
<use xlink:href="#path14_fill" transform="translate(-1572.23 -222.206)" fill="#FFFFFF"/>
<use xlink:href="#path15_fill" transform="translate(-1572.23 -222.206)" fill="#FFFFFF"/>
<use xlink:href="#path16_fill" transform="translate(-1572.23 -222.206)" fill="#FFFFFF"/>
<use xlink:href="#path17_fill" transform="translate(-1572.23 -222.206)" fill="#FFFFFF"/>
</g>
<g id="Vector">
<use xlink:href="#path18_fill" transform="translate(-1558.17 -208.082)" fill="#FFFFFF"/>
</g>
<g id="Vector">
<use xlink:href="#path19_fill" transform="translate(-1516.18 -214.37)" fill="#FFFFFF"/>
</g>
<g id="Vector">
<use xlink:href="#path20_fill" transform="translate(-1510.89 -214.072)" fill="#FFFFFF"/>
<use xlink:href="#path21_fill" transform="translate(-1510.89 -214.072)" fill="#FFFFFF"/>
</g>
<g id="Vector">
<use xlink:href="#path22_fill" transform="translate(-1550.19 -200.145)" fill="#336E7B" class="svgInternalID"/>
</g>
</g>
</g>
<defs>
<path id="path0_fill" d="M 21.4097 88.8841C 10.2316 87.7573 1.39727 78.968 0.315512 67.7899C 0.766242 65.6264 4.2985e-08 63.508 4.2985e-08 61.3444C 0.0450731 50.1663 0.0450731 39.0333 4.2985e-08 27.8552C 4.2985e-08 25.6917 0.811315 23.5732 0.315512 21.4097C 1.35219 11.4486 8.60896 2.97482 18.1644 0.991608C 19.2462 0.766242 20.2378 8.05969e-08 21.4548 0.315512C 23.6183 0.766242 25.7367 -4.2985e-08 27.9002 -4.2985e-08C 39.0784 0.045073 50.2114 0.045073 61.3895 -4.2985e-08C 63.553 -4.2985e-08 65.6715 0.811315 67.835 0.315512C 79.0582 1.48741 87.8474 10.2316 88.9292 21.4097C 88.4784 23.5732 89.2447 25.6917 89.2447 27.8552C 89.1996 39.0333 89.1996 50.1663 89.2447 61.3444C 89.2447 63.508 88.4334 65.6264 88.9292 67.7899C 87.2164 80.4104 78.6074 87.5319 67.835 88.8841C 65.6715 88.4334 63.553 89.1996 61.3895 89.1996C 50.2114 89.1545 39.0784 89.1545 27.9002 89.1996C 25.6917 89.2447 23.5732 88.4334 21.4097 88.8841Z"/>
<path id="path1_fill" d="M 68.2126 0.738243C 67.3562 1.41434 66.3196 1.1439 65.373 1.09883C 54.0146 0.152293 42.6562 0.963608 31.2978 0.648097C 28.5483 0.512878 25.8439 1.18897 23.0494 1.09883C 22.5987 1.09883 22.148 1.09883 21.7874 0.738243C 32.7401 -0.433657 43.783 0.152293 54.7358 0.10722C 59.2431 0.10722 63.7504 -0.118145 68.2126 0.738243Z"/>
<path id="path2_fill" d="M 0.69317 21.8324C 1.36927 22.6888 1.09883 23.7255 1.05375 24.672C 0.10722 36.0305 0.918535 47.3889 0.603024 58.7473C 0.512878 61.5418 1.1439 64.2462 1.09883 66.9957C 1.09883 67.4464 1.09883 67.8971 0.738243 68.2577C -0.433657 57.3049 0.152293 46.262 0.10722 35.3093C 0.0621468 30.802 -0.163218 26.2947 0.69317 21.8324Z"/>
<path id="path3_fill" d="M 89.3068 68.2577C 88.6308 67.4013 88.9012 66.3646 88.9463 65.4181C 89.8928 54.0597 89.0815 42.7013 89.397 31.3429C 89.4871 28.5483 88.8561 25.8439 88.9012 23.0945C 88.9012 22.6438 88.9012 22.193 89.2618 21.8324C 90.4337 32.7852 89.8477 43.8281 89.8928 54.7809C 89.9829 59.2882 90.1632 63.7955 89.3068 68.2577Z"/>
<path id="path4_fill" d="M 21.8324 89.3519C 22.6888 88.6758 23.7255 88.9462 24.672 88.9913C 36.0304 89.9379 47.3889 89.1265 58.7473 89.442C 61.5418 89.5322 64.2462 88.9012 66.9956 88.9462C 67.4464 88.9462 67.8971 88.9462 68.2577 89.3068C 57.3049 90.4787 46.262 89.8928 35.3093 89.9379C 30.7569 89.9829 26.2496 90.2083 21.8324 89.3519Z"/>
<path id="path5_fill" d="M 57.9094 74.2259C 56.9178 74.1357 55.9713 74.0456 55.0248 74.4963C 54.6191 74.9471 54.0331 74.7668 53.5373 74.7668C 42.7649 74.7668 31.9924 74.7668 21.22 74.7668C 20.7242 74.7668 20.1382 74.9471 19.7325 74.4963C 18.8311 74.0456 17.8395 74.1357 16.8479 74.2259C 16.2619 74.3611 15.676 74.5414 15.1802 74.0907C 11.7997 73.0991 8.4192 72.1525 5.71482 69.5834C 2.83014 66.8339 1.74839 63.2731 0.711709 59.6222C 0.260979 59.0813 0.441271 58.4954 0.576491 57.9094C 0.666637 56.9178 0.756783 55.9713 0.306052 55.0248C -0.144679 54.6191 0.0356133 54.0332 0.0356133 53.5373C 0.0356133 42.7649 0.0356133 31.9924 0.0356133 21.22C 0.0356133 20.7242 -0.144679 20.1382 0.306052 19.7325C 0.756783 18.8311 0.666637 17.8395 0.576491 16.8479C 0.441271 16.2619 0.260979 15.676 0.711709 15.1802C 1.70332 11.5292 2.78507 7.96847 5.71482 5.21902C 8.4192 2.60478 11.7997 1.70332 15.1802 0.711709C 15.721 0.260979 16.307 0.441271 16.8929 0.57649C 17.8846 0.666636 18.8311 0.71171 19.7776 0.306052C 20.1833 -0.144679 20.7692 0.0356135 21.265 0.0356135C 32.0375 0.0356135 42.81 0.0356135 53.5824 0.0356135C 54.0782 0.0356135 54.6642 -0.144679 55.0698 0.306052C 55.9713 0.756783 56.9629 0.666636 57.9545 0.57649C 58.5405 0.441271 59.1264 0.260979 59.6222 0.711709C 63.2731 1.70332 66.8339 2.78507 69.5834 5.71482C 72.1976 8.4192 73.0991 11.7997 74.0907 15.1802C 74.5414 15.721 74.3611 16.307 74.2259 16.8929C 74.1357 17.8845 74.0456 18.8311 74.4963 19.7776C 74.9471 20.1833 74.7668 20.7692 74.7668 21.265C 74.7668 32.0375 74.7668 42.81 74.7668 53.5824C 74.7668 54.0782 74.9471 54.6642 74.4963 55.0698C 74.0456 55.9713 74.1357 56.9629 74.2259 57.9545C 74.3611 58.5405 74.5414 59.1264 74.0907 59.6222C 73.0991 63.0027 72.1976 66.3832 69.5834 69.0876C 66.7888 71.9722 63.2731 73.054 59.6222 74.0907C 59.0363 74.5414 58.4503 74.3611 57.9094 74.2259Z"/>
<path id="path6_fill" d="M 19.9223 74.641C 31.6864 74.641 43.4505 74.641 55.2145 74.641C 55.8906 74.8664 56.702 74.4607 57.5583 75.1819C 44.1716 75.1819 31.0103 75.1819 17.6687 75.1819C 18.3898 74.4607 19.2462 74.8664 19.9223 74.641Z"/>
<path id="path7_fill" d="M 0.450731 19.8772C 0.450731 31.6413 0.450731 43.4054 0.450731 55.1694C 0.360585 55.6652 0.315511 56.161 0.225365 56.6568C 0.135219 56.6568 0.0901461 56.6569 0 56.6118C 0 44.0364 0 31.461 0 18.8856C 0.0901461 18.8856 0.180292 18.8856 0.270439 18.8405C 0.315512 19.2011 0.405658 19.5617 0.450731 19.8772Z"/>
<path id="path8_fill" d="M 74.6861 55.2145C 74.6861 43.4504 74.6861 31.6864 74.6861 19.9223C 74.7312 19.6068 74.7763 19.3363 74.8213 19.0208C 74.8664 19.0208 74.9565 19.0208 75.0016 19.0208C 75.0016 31.5511 75.0016 44.1265 75.0016 56.7019C 74.5509 56.2512 74.8664 55.6652 74.6861 55.2145Z"/>
<path id="path9_fill" d="M 55.2145 0.450731C 43.4504 0.450731 31.6864 0.450731 19.9223 0.450731C 19.5617 0.405658 19.2462 0.315511 18.8856 0.270438C 18.8856 0.180292 18.8856 0.0901461 18.9307 0C 31.3709 0 43.766 0 56.2061 0C 56.2061 0.0901461 56.2061 0.180292 56.2512 0.270438C 55.8906 0.315511 55.53 0.360585 55.2145 0.450731Z"/>
<path id="path10_fill" d="M 16.7244 0.426111C 16.1385 0.471184 15.5976 0.516257 15.0117 0.56133C 15.5525 -0.340131 16.1385 0.0204529 16.7244 0.426111Z"/>
<path id="path11_fill" d="M 59.4537 0.56133C 58.9129 0.516257 58.3269 0.471184 57.786 0.426111C 58.372 0.0204529 58.9579 -0.340131 59.4537 0.56133Z"/>
<path id="path12_fill" d="M 0.543244 15.0298C 0.498171 15.5707 0.453098 16.1566 0.408025 16.6975C 0.00236767 16.1115 -0.313144 15.5256 0.543244 15.0298Z"/>
<path id="path13_fill" d="M 74.0574 16.7426C 74.0124 16.1566 73.9673 15.6157 73.9222 15.0298C 74.8237 15.5256 74.4631 16.1115 74.0574 16.7426Z"/>
<path id="path14_fill" d="M 0.408025 57.7591C 0.453098 58.345 0.498171 58.8859 0.543244 59.4718C -0.313144 58.976 0.00236767 58.3901 0.408025 57.7591Z"/>
<path id="path15_fill" d="M 73.9222 59.4718C 73.9673 58.931 74.0124 58.345 74.0574 57.8041C 74.4631 58.3901 74.8237 58.976 73.9222 59.4718Z"/>
<path id="path16_fill" d="M 15.0568 73.9403C 15.5977 73.9854 16.1836 74.0304 16.7245 74.0755C 16.1385 74.4812 15.5526 74.8418 15.0568 73.9403Z"/>
<path id="path17_fill" d="M 57.786 74.0755C 58.372 74.0304 58.9129 73.9854 59.4988 73.9403C 58.9579 74.8418 58.372 74.4812 57.786 74.0755Z"/>
<path id="path18_fill" d="M 46.3802 23.1725C 46.3351 35.8381 35.6979 46.3852 23.0774 46.3401C 10.502 46.25 6.8776e-07 35.7479 6.8776e-07 23.1725C 6.8776e-07 10.507 10.6372 -0.265454 23.3028 0.00498451C 36.4641 0.275423 45.9745 10.1014 46.3802 23.1725Z"/>
<path id="path19_fill" d="M 10.3 3.85817C 11.0212 6.1569 10.1648 8.5007 8.18161 9.76275C 6.06318 11.1149 3.40387 10.7994 1.60095 8.99651C -0.201973 7.19358 -0.51749 4.53427 0.834702 2.41584C 2.09675 0.387548 4.44055 -0.46884 6.73928 0.252329C 6.55899 0.56784 6.15333 0.432622 5.92796 0.567841C 6.33362 0.477695 6.73927 0.612913 7.14493 0.387548C 8.76756 0.838278 9.80425 1.87496 10.255 3.49759C 10.0747 3.8131 10.1198 4.12861 10.0747 4.44412C 10.2099 4.30891 10.0296 3.99339 10.3 3.85817Z"/>
<path id="path20_fill" d="M 1.80292 0.135219C 1.26205 0.721169 0.631023 0.495803 0 0.135219C 0.495804 0.0901458 0.946533 0.0450731 1.44234 0C 1.57756 -3.20263e-15 1.71278 -3.49253e-07 1.80292 0.135219Z"/>
<path id="path21_fill" d="M 5.00309 3.56077C 4.95801 4.05658 4.91295 4.50731 4.86787 5.31862C 4.41714 4.37209 4.41714 3.78614 4.91294 3.20019C 5.00309 3.33541 5.04816 3.42555 5.00309 3.56077Z"/>
<path id="path22_fill" d="M 15.2349 1.37552e-06C 23.8439 1.37552e-06 30.4696 6.67082 30.4246 15.3248C 30.3795 23.8437 23.7537 30.4243 15.1899 30.3792C 6.5809 30.3792 -0.0448452 23.7084 0.000227904 15.0544C 0.045301 6.53559 6.67104 1.37552e-06 15.2349 1.37552e-06Z"/>
</defs>
</svg>
