<svg width="90" height="91" viewBox="0 0 90 91" fill="none" xmlns="http://www.w3.org/2000/svg">
<g id="imgres-01">
<path id="Vector" d="M19.4 5.37596L19.403 5.37535C19.9771 5.25575 20.4697 5.07963 20.7855 4.96171C20.8858 4.92426 21.009 4.87699 21.1038 4.84065C21.1442 4.82514 21.1794 4.81162 21.2055 4.8017C21.2561 4.78244 21.2991 4.76631 21.3365 4.75255C22.9898 5.04964 24.5007 4.90211 25.6015 4.76306C25.9722 4.71624 26.2885 4.67281 26.5677 4.63447C27.2994 4.53399 27.7771 4.46839 28.3159 4.46782C39.4987 4.51289 50.6365 4.51289 61.8193 4.46782C62.3376 4.46841 62.788 4.53341 63.4956 4.63552C63.7845 4.67722 64.1163 4.7251 64.5132 4.77732C65.519 4.90966 66.881 5.04941 68.3871 4.82597C77.3173 6.00116 84.2323 12.9259 85.3155 21.7609C85.111 23.2473 85.2451 24.5957 85.3722 25.6015C85.419 25.9722 85.4624 26.2884 85.5008 26.5677C85.6012 27.2992 85.6668 27.7768 85.6674 28.3155C85.6223 39.4986 85.6223 50.6366 85.6674 61.8197C85.6668 62.3378 85.6018 62.7882 85.4997 63.4956C85.458 63.7845 85.4101 64.1163 85.3579 64.5132C85.2275 65.5045 85.0899 66.8417 85.2998 68.3219C83.7032 78.4127 76.9869 84.0249 68.3138 85.3073C66.8513 85.1146 65.5259 85.2468 64.5337 85.3722C64.163 85.419 63.8467 85.4624 63.5675 85.5008C62.8353 85.6013 62.3575 85.6669 61.8183 85.6674C50.6328 85.6223 39.4923 85.6224 28.3068 85.6675L28.2741 85.6676L28.2413 85.6683C27.6875 85.6796 27.1831 85.6101 26.3612 85.497C26.1289 85.465 25.8712 85.4295 25.5799 85.3914C24.5908 85.2619 23.2304 85.1119 21.7272 85.3145C12.8371 84.1891 5.86137 77.2284 4.7747 68.3743C4.97917 66.8879 4.84503 65.5396 4.71797 64.5337C4.67115 64.163 4.62772 63.8468 4.58938 63.5675C4.4889 62.8359 4.42331 62.3582 4.42273 61.8194C4.4678 50.6366 4.4678 39.4987 4.42273 28.3159C4.42332 27.7977 4.48832 27.3472 4.59043 26.6397C4.63213 26.3507 4.68001 26.0189 4.73223 25.6221C4.86457 24.6163 5.00432 23.2543 4.78089 21.7482C5.85229 13.6326 11.8424 6.94453 19.4 5.37596Z" stroke="white" stroke-width="8"/>
<g id="Vector_2">
<path d="M68.2126 0.738243C67.3562 1.41434 66.3196 1.1439 65.373 1.09883C54.0146 0.152293 42.6562 0.963608 31.2978 0.648097C28.5483 0.512878 25.8439 1.18897 23.0494 1.09883C22.5987 1.09883 22.148 1.09883 21.7874 0.738243C32.7401 -0.433657 43.783 0.152293 54.7358 0.10722C59.2431 0.10722 63.7504 -0.118145 68.2126 0.738243Z" fill="white"/>
<path d="M0.69317 21.8324C1.36927 22.6888 1.09883 23.7255 1.05375 24.672C0.10722 36.0305 0.918535 47.3889 0.603024 58.7473C0.512878 61.5418 1.1439 64.2462 1.09883 66.9957C1.09883 67.4464 1.09883 67.8971 0.738243 68.2577C-0.433657 57.3049 0.152293 46.262 0.10722 35.3093C0.0621468 30.802 -0.163218 26.2947 0.69317 21.8324Z" fill="white"/>
<path d="M89.3068 68.2577C88.6308 67.4013 88.9012 66.3646 88.9463 65.4181C89.8928 54.0597 89.0815 42.7013 89.397 31.3429C89.4871 28.5483 88.8561 25.8439 88.9012 23.0945C88.9012 22.6438 88.9012 22.193 89.2618 21.8324C90.4337 32.7852 89.8477 43.8281 89.8928 54.7809C89.9829 59.2882 90.1632 63.7955 89.3068 68.2577Z" fill="white"/>
<path d="M21.8324 89.3519C22.6888 88.6758 23.7255 88.9462 24.672 88.9913C36.0304 89.9379 47.3889 89.1265 58.7473 89.442C61.5418 89.5322 64.2462 88.9012 66.9956 88.9462C67.4464 88.9462 67.8971 88.9462 68.2577 89.3068C57.3049 90.4787 46.262 89.8928 35.3093 89.9379C30.7569 89.9829 26.2496 90.2083 21.8324 89.3519Z" fill="white"/>
</g>
<g id="Vector_3">
<path d="M27.3764 82.1402C39.1405 82.1402 50.9046 82.1402 62.6686 82.1402C63.3447 82.3656 64.1561 81.9599 65.0124 82.6811C51.6257 82.6811 38.4644 82.6811 25.1228 82.6811C25.8439 81.9599 26.7003 82.3656 27.3764 82.1402Z" fill="white"/>
<path d="M7.90483 27.3764C7.90483 39.1405 7.90483 50.9046 7.90483 62.6686C7.81469 63.1644 7.76961 63.6602 7.67947 64.156C7.58932 64.156 7.54425 64.156 7.4541 64.111C7.4541 51.5356 7.4541 38.9602 7.4541 26.3848C7.54425 26.3848 7.63439 26.3848 7.72454 26.3397C7.76961 26.7003 7.85976 27.0609 7.90483 27.3764Z" fill="white"/>
<path d="M82.1402 62.7137C82.1402 50.9496 82.1402 39.1856 82.1402 27.4215C82.1853 27.106 82.2304 26.8355 82.2754 26.52C82.3205 26.52 82.4106 26.52 82.4557 26.52C82.4557 39.0503 82.4557 51.6257 82.4557 64.2011C82.005 63.7504 82.3205 63.1644 82.1402 62.7137Z" fill="white"/>
<path d="M62.6686 7.94992C50.9045 7.94992 39.1405 7.94992 27.3764 7.94992C27.0158 7.90485 26.7003 7.8147 26.3397 7.76963C26.3397 7.67948 26.3397 7.58934 26.3848 7.49919C38.825 7.49919 51.2201 7.49919 63.6602 7.49919C63.6602 7.58934 63.6602 7.67948 63.7053 7.76963C63.3447 7.8147 62.9841 7.85978 62.6686 7.94992Z" fill="white"/>
</g>
<g id="Vector_4">
<path d="M24.4917 8.22038C23.9057 8.26545 23.3648 8.31052 22.7789 8.3556C23.3198 7.45413 23.9057 7.81472 24.4917 8.22038Z" fill="white"/>
<path d="M67.2209 8.3556C66.6801 8.31052 66.0941 8.26545 65.5532 8.22038C66.1392 7.81472 66.7251 7.45413 67.2209 8.3556Z" fill="white"/>
<path d="M8.31046 22.824C8.26538 23.3649 8.22031 23.9509 8.17524 24.4918C7.76958 23.9058 7.45407 23.3199 8.31046 22.824Z" fill="white"/>
<path d="M81.8246 24.5368C81.7796 23.9509 81.7345 23.41 81.6894 22.824C82.5909 23.3199 82.2303 23.9058 81.8246 24.5368Z" fill="white"/>
<path d="M8.17524 65.5533C8.22031 66.1393 8.26538 66.6802 8.31046 67.2661C7.45407 66.7703 7.76958 66.1843 8.17524 65.5533Z" fill="white"/>
<path d="M81.6894 67.2661C81.7345 66.7252 81.7796 66.1393 81.8246 65.5984C82.2303 66.1843 82.5909 66.7703 81.6894 67.2661Z" fill="white"/>
<path d="M22.824 81.7346C23.3649 81.7796 23.9508 81.8247 24.4917 81.8698C23.9057 82.2754 23.3198 82.636 22.824 81.7346Z" fill="white"/>
<path d="M65.5532 81.8698C66.1392 81.8247 66.6801 81.7796 67.266 81.7346C66.7251 82.636 66.1392 82.2754 65.5532 81.8698Z" fill="white"/>
</g>
<path id="Vector_5" d="M45.0499 25.9217L45.0531 25.9218C55.9793 26.1463 63.8391 34.1526 64.2124 45.1444C64.1369 55.5698 55.3152 64.2907 44.9316 64.2578C34.5403 64.1794 25.8325 55.4484 25.8325 45.0902C25.8325 34.5854 34.7074 25.7009 45.0499 25.9217Z" stroke="white" stroke-width="8"/>
<path id="Vector_6" d="M74.1172 19.4886C74.8384 21.7873 73.982 24.1311 71.9988 25.3932C69.8803 26.7454 67.221 26.4299 65.4181 24.627C63.6152 22.824 63.2996 20.1647 64.6518 18.0463C65.9139 16.018 68.2577 15.1616 70.5564 15.8828C70.3761 16.1983 69.9705 16.0631 69.7451 16.1983C70.1508 16.1081 70.5564 16.2434 70.9621 16.018C72.5847 16.4687 73.6214 17.5054 74.0721 19.128C73.8918 19.4435 73.9369 19.7591 73.8918 20.0746C74.027 19.9394 73.8467 19.6238 74.1172 19.4886Z" fill="white"/>
<g id="Vector_7">
<path d="M70.9171 16.0631C70.3762 16.649 69.7452 16.4237 69.1141 16.0631C69.6099 16.018 70.0607 15.9729 70.5565 15.9279C70.6917 15.9279 70.8269 15.9279 70.9171 16.0631Z" fill="white"/>
<path d="M74.1172 19.4886C74.0722 19.9844 74.0271 20.4352 73.982 21.2465C73.5313 20.3 73.5313 19.714 74.0271 19.1281C74.1172 19.2633 74.1623 19.3534 74.1172 19.4886Z" fill="white"/>
</g>
</g>
</svg>
