<svg width="60" height="61" viewBox="0 0 60 61" version="1.1" xmlns="http://www.w3.org/2000/svg" xmlns:xlink="http://www.w3.org/1999/xlink">
<title>jquery</title>
<desc>Created using Figma</desc>
<g id="Canvas" transform="translate(255 -1701)">
<g id="jquery">
<g id="Vector">
<use xlink:href="#path0_fill" transform="translate(-255 1701.35)" fill="#F6F6F6"/>
<mask id="mask0_outline_ins">
<use xlink:href="#path0_fill" fill="white" transform="translate(-255 1701.35)"/>
</mask>
<g mask="url(#mask0_outline_ins)">
<use xlink:href="#path1_stroke_2x" transform="translate(-255 1701.35)" fill="#C18D8D"/>
</g>
</g>
<g id="JQuery">
<use xlink:href="#path2_fill" transform="translate(-247 1723)" fill="#888888"/>
</g>
</g>
</g>
<defs>
<path id="path0_fill" d="M 60 0L 0 0L 0 60L 60 60L 60 0Z"/>
<path id="path1_stroke_2x" d="M 0 0L 0 -2L -2 -2L -2 0L 0 0ZM 60 0L 62 0L 62 -2L 60 -2L 60 0ZM 60 60L 60 62L 62 62L 62 60L 60 60ZM 0 60L -2 60L -2 62L 0 62L 0 60ZM 0 2L 60 2L 60 -2L 0 -2L 0 2ZM 58 0L 58 60L 62 60L 62 0L 58 0ZM 60 58L 0 58L 0 62L 60 62L 60 58ZM 2 60L 2 0L -2 0L -2 60L 2 60Z"/>
<path id="path2_fill" d="M 3.79395 11.4863C 3.79395 12.6484 3.54785 13.5531 3.05566 14.2002C 2.56348 14.8428 1.90495 15.1641 1.08008 15.1641C 0.697266 15.1641 0.382812 15.1094 0.136719 15L 0.136719 13.8652C 0.382812 14.043 0.701823 14.1318 1.09375 14.1318C 2.12826 14.1318 2.64551 13.2546 2.64551 11.5L 2.64551 5.19727L 3.79395 5.19727L 3.79395 11.4863ZM 10.2402 15.1641C 8.85482 15.1641 7.74056 14.7061 6.89746 13.79C 6.06348 12.874 5.64648 11.6823 5.64648 10.2148C 5.64648 8.63346 6.07259 7.37565 6.9248 6.44141C 7.78158 5.5026 8.94141 5.0332 10.4043 5.0332C 11.7533 5.0332 12.8424 5.48893 13.6719 6.40039C 14.5013 7.31185 14.916 8.50358 14.916 9.97559C 14.916 11.5752 14.4922 12.8398 13.6445 13.7695C 13.444 13.9928 13.2298 14.1842 13.002 14.3438L 15.7568 16.3193L 13.6719 16.3193L 11.8262 14.9385C 11.3431 15.0889 10.8145 15.1641 10.2402 15.1641ZM 10.3223 6.07227C 9.29232 6.07227 8.45605 6.44369 7.81348 7.18652C 7.1709 7.92936 6.84961 8.90462 6.84961 10.1123C 6.84961 11.3154 7.16178 12.2884 7.78613 13.0312C 8.41504 13.765 9.23307 14.1318 10.2402 14.1318C 11.3158 14.1318 12.1634 13.7809 12.7832 13.0791C 13.403 12.3773 13.7129 11.3952 13.7129 10.1328C 13.7129 8.83398 13.4121 7.83366 12.8105 7.13184C 12.209 6.42546 11.3796 6.07227 10.3223 6.07227ZM 22.3535 15L 21.2324 15L 21.2324 13.8926L 21.2051 13.8926C 20.7402 14.7402 20.0202 15.1641 19.0449 15.1641C 17.377 15.1641 16.543 14.1706 16.543 12.1836L 16.543 8L 17.6572 8L 17.6572 12.0059C 17.6572 13.4824 18.2223 14.2207 19.3525 14.2207C 19.8994 14.2207 20.3483 14.0202 20.6992 13.6191C 21.0547 13.2135 21.2324 12.6849 21.2324 12.0332L 21.2324 8L 22.3535 8L 22.3535 15ZM 30.249 11.7803L 25.3066 11.7803C 25.3249 12.5596 25.5345 13.1611 25.9355 13.585C 26.3366 14.0088 26.888 14.2207 27.5898 14.2207C 28.3783 14.2207 29.1029 13.9609 29.7637 13.4414L 29.7637 14.4941C 29.1484 14.9408 28.335 15.1641 27.3232 15.1641C 26.3343 15.1641 25.5573 14.8473 24.9922 14.2139C 24.4271 13.5758 24.1445 12.6803 24.1445 11.5273C 24.1445 10.4382 24.4521 9.55176 25.0674 8.86816C 25.6872 8.18001 26.4551 7.83594 27.3711 7.83594C 28.2871 7.83594 28.9958 8.13216 29.4971 8.72461C 29.9984 9.31706 30.249 10.1396 30.249 11.1924L 30.249 11.7803ZM 29.1006 10.8301C 29.096 10.1829 28.9388 9.67936 28.6289 9.31934C 28.3236 8.95931 27.8975 8.7793 27.3506 8.7793C 26.8219 8.7793 26.373 8.96842 26.0039 9.34668C 25.6348 9.72493 25.4069 10.2194 25.3203 10.8301L 29.1006 10.8301ZM 35.6016 9.13477C 35.4056 8.98438 35.123 8.90918 34.7539 8.90918C 34.2754 8.90918 33.8743 9.13477 33.5508 9.58594C 33.2318 10.0371 33.0723 10.6523 33.0723 11.4316L 33.0723 15L 31.9512 15L 31.9512 8L 33.0723 8L 33.0723 9.44238L 33.0996 9.44238C 33.2591 8.9502 33.5029 8.56738 33.8311 8.29395C 34.1592 8.01595 34.526 7.87695 34.9316 7.87695C 35.2233 7.87695 35.4466 7.90885 35.6016 7.97266L 35.6016 9.13477ZM 42.3896 8L 39.1699 16.1211C 38.5957 17.5703 37.7891 18.2949 36.75 18.2949C 36.4583 18.2949 36.2145 18.2653 36.0186 18.2061L 36.0186 17.2012C 36.2601 17.2832 36.4811 17.3242 36.6816 17.3242C 37.2467 17.3242 37.6706 16.987 37.9531 16.3125L 38.5137 14.9863L 35.7793 8L 37.0234 8L 38.917 13.3867C 38.9398 13.4551 38.9876 13.6328 39.0605 13.9199L 39.1016 13.9199C 39.1243 13.8105 39.1699 13.6374 39.2383 13.4004L 41.2275 8L 42.3896 8Z"/>
</defs>
</svg>
