<svg width="90" height="90" viewBox="0 0 90 90" version="1.1" xmlns="http://www.w3.org/2000/svg" xmlns:xlink="http://www.w3.org/1999/xlink">
<title>html-02</title>
<desc>Created using Figma</desc>
<g id="Canvas" transform="translate(-46 -1174)">
<g id="html-02">
<g id="Vector">
<use xlink:href="#path0_fill" transform="translate(46 1174)" fill="#F6F6F6"/>
<mask id="mask0_outline_ins">
<use xlink:href="#path0_fill" fill="white" transform="translate(46 1174)"/>
</mask>
<g mask="url(#mask0_outline_ins)">
<use xlink:href="#path1_stroke_2x" transform="translate(46 1174)" fill="#C18D8D"/>
</g>
</g>
<g id="JS">
<use xlink:href="#path2_fill" transform="translate(83 1207)" fill="#888888"/>
</g>
</g>
</g>
<defs>
<path id="path0_fill" d="M 90 0L 0 0L 0 90L 90 90L 90 0Z"/>
<path id="path1_stroke_2x" d="M 0 0L 0 -2L -2 -2L -2 0L 0 0ZM 90 0L 92 0L 92 -2L 90 -2L 90 0ZM 90 90L 90 92L 92 92L 92 90L 90 90ZM 0 90L -2 90L -2 92L 0 92L 0 90ZM 0 2L 90 2L 90 -2L 0 -2L 0 2ZM 88 0L 88 90L 92 90L 92 0L 88 0ZM 90 88L 0 88L 0 92L 90 92L 90 88ZM 2 90L 2 0L -2 0L -2 90L 2 90Z"/>
<path id="path2_fill" d="M 4.87793 14.4824C 4.87793 15.9766 4.56152 17.1396 3.92871 17.9717C 3.2959 18.7979 2.44922 19.2109 1.38867 19.2109C 0.896484 19.2109 0.492188 19.1406 0.175781 19L 0.175781 17.541C 0.492188 17.7695 0.902344 17.8838 1.40625 17.8838C 2.73633 17.8838 3.40137 16.7559 3.40137 14.5L 3.40137 6.39648L 4.87793 6.39648L 4.87793 14.4824ZM 7.49707 18.4902L 7.49707 16.75C 7.69629 16.9258 7.93359 17.084 8.20898 17.2246C 8.49023 17.3652 8.7832 17.4854 9.08789 17.585C 9.39844 17.6787 9.70898 17.752 10.0195 17.8047C 10.3301 17.8574 10.6172 17.8838 10.8809 17.8838C 11.7891 17.8838 12.4658 17.7168 12.9111 17.3828C 13.3623 17.043 13.5879 16.5566 13.5879 15.9238C 13.5879 15.584 13.5117 15.2881 13.3594 15.0361C 13.2129 14.7842 13.0078 14.5557 12.7441 14.3506C 12.4805 14.1396 12.167 13.9404 11.8037 13.7529C 11.4463 13.5596 11.0596 13.3574 10.6436 13.1465C 10.2041 12.9238 9.79395 12.6982 9.41309 12.4697C 9.03223 12.2412 8.70117 11.9893 8.41992 11.7139C 8.13867 11.4385 7.91602 11.1279 7.75195 10.7822C 7.59375 10.4307 7.51465 10.0205 7.51465 9.55176C 7.51465 8.97754 7.64062 8.47949 7.89258 8.05762C 8.14453 7.62988 8.47559 7.27832 8.88574 7.00293C 9.2959 6.72754 9.76172 6.52246 10.2832 6.3877C 10.8105 6.25293 11.3467 6.18555 11.8916 6.18555C 13.1338 6.18555 14.0391 6.33496 14.6074 6.63379L 14.6074 8.29492C 13.8633 7.7793 12.9082 7.52148 11.7422 7.52148C 11.4199 7.52148 11.0977 7.55664 10.7754 7.62695C 10.4531 7.69141 10.166 7.7998 9.91406 7.95215C 9.66211 8.10449 9.45703 8.30078 9.29883 8.54102C 9.14062 8.78125 9.06152 9.07422 9.06152 9.41992C 9.06152 9.74219 9.12012 10.0205 9.2373 10.2549C 9.36035 10.4893 9.53906 10.7031 9.77344 10.8965C 10.0078 11.0898 10.292 11.2773 10.626 11.459C 10.9658 11.6406 11.3555 11.8398 11.7949 12.0566C 12.2461 12.2793 12.6738 12.5137 13.0781 12.7598C 13.4824 13.0059 13.8369 13.2783 14.1416 13.5771C 14.4463 13.876 14.6865 14.207 14.8623 14.5703C 15.0439 14.9336 15.1348 15.3496 15.1348 15.8184C 15.1348 16.4395 15.0117 16.9668 14.7656 17.4004C 14.5254 17.8281 14.1973 18.1768 13.7812 18.4463C 13.3711 18.7158 12.8965 18.9092 12.3574 19.0264C 11.8184 19.1494 11.25 19.2109 10.6523 19.2109C 10.4531 19.2109 10.207 19.1934 9.91406 19.1582C 9.62109 19.1289 9.32227 19.082 9.01758 19.0176C 8.71289 18.959 8.42285 18.8857 8.14746 18.7979C 7.87793 18.7041 7.66113 18.6016 7.49707 18.4902Z"/>
</defs>
</svg>
