<svg width="47" height="45" viewBox="0 0 47 45" version="1.1" xmlns="http://www.w3.org/2000/svg" xmlns:xlink="http://www.w3.org/1999/xlink">
<title>linkedin</title>
<desc>Created using Figma</desc>
<g id="Canvas" transform="translate(-1807 -771)">
<g id="linkedin">
<g id="Canvas">
<g id="linkedin">
<clipPath id="clip-0" clip-rule="evenodd">
<path d="M 1807 771L 1854 771L 1854 816L 1807 816L 1807 771Z" fill="#FFFFFF"/>
</clipPath>
<g id="Vector" clip-path="url(#clip-0)">
</g>
<clipPath id="clip-1" clip-rule="evenodd">
<path d="M 1833.16 792.83L 1843.87 792.83L 1843.87 815.995L 1833.16 815.995L 1833.16 792.83Z" fill="#FFFFFF"/>
</clipPath>
<g id="Vector" clip-path="url(#clip-1)">
</g>
<g id="Vector">
<g id="Vector">
<use xlink:href="#path0_fill" transform="translate(1807.02 771.03)" fill="#f5f5f5" class="svgInternalID"/>
</g>
</g>
<g id="Vector">
<g id="Vector">
<use xlink:href="#path1_fill" transform="translate(1823.2 784.95)" fill="#f5f5f5" class="svgInternalID"/>
</g>
</g>
<g id="Vector">
<g id="Vector">
<use xlink:href="#path2_fill" transform="translate(1807.6 785.67)" fill="#f5f5f5" class="svgInternalID"/>
</g>
</g>
</g>
</g>
</g>
</g>
<defs>
<path id="path0_fill" d="M 0 4.44366C 0.121812 4.28009 0.10413 4.07513 0.155212 3.89185C 0.355508 3.08488 0.757287 2.34234 1.32271 1.73415C 1.88813 1.12596 2.59859 0.67215 3.38716 0.415458C 4.95822 -0.175005 6.6958 -0.134767 8.23802 0.52779C 9.965 1.26682 10.9552 2.62269 11.2342 4.46928C 11.692 7.48452 9.75674 10.0189 6.74484 10.4505C 5.49136 10.6298 4.27324 10.5648 3.10817 10.0563C 1.48925 9.35279 0.4676 8.13487 0.0962703 6.38682C 0.0746585 6.28828 0.0962707 6.16806 0 6.0912L 0 4.44366Z"/>
<path id="path1_fill" d="M 10.0376 30.9949C 6.81157 30.9949 3.58749 30.9949 0.361434 30.9949C 0.0844102 30.9949 0.0215412 30.9102 0.0254706 30.6481C 0.0372588 29.6627 0.0254706 28.6773 0.0254706 27.692C 0.0254706 24.7267 0.0254706 21.7613 0.0254706 18.796C 0.0254706 18.6876 0.0254706 18.5812 0.0254706 18.4728C 0.0254706 13.743 0.0254706 9.01324 0.0254706 4.28345C 0.0254706 3.33356 0.0136801 2.38563 0.00778593 1.43573C 0.00778593 1.41602 0.00778593 1.39631 0.00778593 1.37661C -0.0177553 0.724289 -0.0177524 0.72429 0.624707 0.72429C 3.65036 0.72429 6.67535 0.72429 9.69969 0.72429C 9.95707 0.72429 10.0494 0.777499 10.0455 1.05932C 10.0298 2.33045 10.0455 3.60158 10.0455 4.87665C 10.1752 4.87665 10.1869 4.77417 10.2302 4.70914C 11.1477 3.34735 12.246 2.17279 13.6802 1.3431C 14.9037 0.645237 16.2613 0.216625 17.6627 0.0857672C 19.495 -0.126973 21.3515 0.0571684 23.1069 0.625752C 26.0736 1.61113 28.1051 3.61734 29.3487 6.45916C 30.0076 8.018 30.4129 9.67278 30.5492 11.3604C 30.6278 12.1802 30.6474 12.9981 30.6474 13.8199C 30.6474 19.4181 30.6474 25.017 30.6474 30.6166C 30.6474 30.7427 30.6474 30.8708 30.6474 30.9969C 27.4292 30.9969 24.213 30.9969 20.9948 30.9969C 20.7119 30.9969 20.6392 30.9201 20.6392 30.6382C 20.6471 25.22 20.6471 19.8018 20.6392 14.3835C 20.6392 14.2613 20.6863 14.1273 20.5881 14.017C 20.4918 12.7439 20.3072 11.4924 19.6981 10.3455C 18.9319 8.90288 17.7196 8.16188 16.1145 8.01605C 14.7077 7.88795 13.4091 8.17371 12.301 9.07237C 11.0023 10.1228 10.1987 11.4589 10.0907 13.1735C 10.0553 13.7312 10.0494 14.287 10.0494 14.8427C 10.0494 20.098 10.0494 25.3534 10.0494 30.6087C 10.0455 30.7407 10.0396 30.8688 10.0376 30.9949Z"/>
<path id="path2_fill" d="M 10.0554 0.0886925C 9.96701 0.202996 10.0102 0.335038 10.0102 0.457224C 10.0102 10.2597 10.0102 20.0615 10.0102 29.8627C 10.0102 30.2746 10.0102 30.2746 9.60354 30.2746L 0.00200961 30.2746C 0.00200961 30.1662 0.00200961 30.0598 0.00200961 29.9514C 0.00200961 20.1056 0.00200961 10.2591 0.00200961 0.411898C 0.00200961 -0.0394031 -0.0530029 0.0177485 0.412633 0.0177485C 3.52473 0.0177485 6.63748 0.0177485 9.75089 0.0177485C 9.84716 0.0157778 9.98076 -0.0512305 10.0554 0.0886925Z"/>
</defs>
</svg>
