<svg width="47" height="45" viewBox="0 0 47 45" version="1.1" xmlns="http://www.w3.org/2000/svg" xmlns:xlink="http://www.w3.org/1999/xlink">
<title>linkedin</title>
<desc>Created using Figma</desc>
<style>
    .svgInternalID {
        transition: background-color .5s;
    }
</style>
<g id="Canvas" transform="translate(-89 -1939)">
<g id="linkedin">
<g id="Vector">
<use xlink:href="#path0_fill" transform="translate(89 1939)" fill="#F6F6F6"/>
</g>
<g id="Vector">
<use xlink:href="#path1_fill" transform="translate(115.156 1960.83)" fill="#F6F6F6"/>
</g>
<g id="Vector">
<use xlink:href="#path2_fill" transform="translate(89.0158 1939.03)" fill="#3C7A89" class="svgInternalID" />
</g>
<g id="Vector">
<use xlink:href="#path3_fill" transform="translate(105.203 1952.95)" fill="#3C7A89" class="svgInternalID" />
</g>
<g id="Vector">
<use xlink:href="#path4_fill" transform="translate(89.6031 1953.67)" fill="#3C7A89" class="svgInternalID" />
</g>
</g>
</g>
<defs>
<path id="path0_fill" d="M 0.60513 45L 0.0157177 45C 0.0157177 32.0391 0.0157177 19.0781 0.0157177 6.1172C 0.174859 6.13887 0.167 6.28076 0.184683 6.38324C 0.383337 7.47242 0.953616 8.45832 1.79771 9.17185C 2.62089 9.87211 3.63301 10.3111 4.70548 10.4331C 5.87033 10.6069 7.06039 10.4562 8.14568 9.99759C 9.81765 9.29403 10.8491 8.02685 11.1595 6.23938C 11.3095 5.46178 11.2778 4.65989 11.0668 3.89668C 10.8558 3.13347 10.4712 2.42971 9.94339 1.84068C 9.37079 1.17833 8.6207 0.694747 7.78221 0.44736C 6.26448 -0.0520761 4.61844 0.0115613 3.14353 0.626697C 2.40222 0.917567 1.7447 1.38888 1.23023 1.99817C 0.715754 2.60745 0.360498 3.33556 0.19647 4.11689C 0.165035 4.24499 0.19647 4.42038 -3.59749e-07 4.46965C -3.59749e-07 3.05071 -3.59749e-07 1.62981 -3.59749e-07 0.210869C -3.59749e-07 0.0354729 0.0353643 -4.81139e-07 0.210223 -4.81139e-07C 3.86065 -4.81139e-07 7.51043 -4.81139e-07 11.1595 -4.81139e-07C 23.0067 -4.81139e-07 34.8546 -4.81139e-07 46.7031 -4.81139e-07C 46.9231 -4.81139e-07 46.9722 0.0492687 46.9722 0.269992C 46.9722 15.0913 46.9677 29.9126 46.9585 44.7339C 46.9585 44.8088 47.1039 45.0059 46.8504 44.998C 46.8271 44.9704 46.8073 44.9399 46.7915 44.9074C 46.757 44.7342 46.7471 44.5571 46.762 44.3812C 46.762 38.4906 46.7915 32.5981 46.7463 26.7075C 46.7286 24.321 46.2787 21.9955 45.1883 19.8395C 43.5596 16.6193 40.9386 14.7609 37.3963 14.2051C 35.64 13.9062 33.8401 13.9902 32.1191 14.4515C 30.2624 14.9569 28.6101 16.0326 27.3939 17.5278C 27.1035 17.8712 26.8313 18.2297 26.5786 18.6019C 26.5524 18.6432 26.5235 18.6827 26.4921 18.7201C 26.4332 18.7871 26.3703 18.8699 26.276 18.8462C 26.1817 18.8226 26.1778 18.7142 26.166 18.6275C 26.1592 18.5199 26.1592 18.4119 26.166 18.3043C 26.166 17.2664 26.166 16.2291 26.166 15.1925C 26.166 14.7845 26.1542 14.7727 25.7632 14.7727L 16.6804 14.7727C 16.2698 14.7727 16.256 14.7904 16.3051 15.2142C 16.3206 15.3799 16.3265 15.5463 16.3228 15.7128C 16.3228 24.1883 16.3228 32.6625 16.3228 41.1354C 16.3313 41.3119 16.3221 41.4888 16.2953 41.6635C 16.2615 41.7954 16.2489 41.9317 16.258 42.0675C 16.258 42.913 16.258 43.7565 16.258 44.6019C 16.2707 44.6698 16.2699 44.7396 16.2558 44.8072C 16.2416 44.8748 16.2143 44.939 16.1754 44.9961L 10.6743 44.9961C 10.5544 44.8522 10.5937 44.6788 10.5937 44.5172C 10.5937 41.7883 10.5937 39.0595 10.5937 36.3307C 10.5937 29.3175 10.5937 22.3049 10.5937 15.293C 10.6218 15.1485 10.601 14.9987 10.5348 14.8673C 10.411 14.753 10.2577 14.7865 10.1163 14.7865L 1.18079 14.7865C 0.701401 14.7865 0.693541 14.7865 0.693541 15.2812C 0.693541 22.1998 0.693541 29.1184 0.693541 36.0371C 0.693541 38.8263 0.693541 41.6156 0.693541 44.4048C 0.707638 44.5711 0.696376 44.7386 0.660142 44.9015C 0.646615 44.9368 0.628088 44.97 0.60513 45Z"/>
<path id="path1_fill" d="M 10.6296 23.165L 0.0908666 23.165C 0.0684236 23.1378 0.0492974 23.108 0.0338914 23.0763C 0.00322316 22.9426 -0.00671596 22.805 0.00442194 22.6683C 0.00442194 17.1003 0.00442194 11.5323 0.00442194 5.96429C 0.00442194 3.91471 0.790303 2.24943 2.42101 1.02166C 4.21282 -0.334217 6.93984 -0.330275 8.63931 0.972388C 9.31911 1.52413 9.83211 2.25505 10.1207 3.08306C 10.4896 4.07509 10.6889 5.12248 10.7101 6.18107C 10.7101 11.6729 10.7101 17.164 10.7101 22.6545C 10.7121 22.828 10.7553 23.0112 10.6296 23.165Z"/>
<path id="path2_fill" d="M 0 4.44366C 0.121812 4.28009 0.10413 4.07513 0.155212 3.89185C 0.355508 3.08488 0.757287 2.34234 1.32271 1.73415C 1.88813 1.12596 2.59859 0.67215 3.38716 0.415458C 4.95822 -0.175005 6.6958 -0.134767 8.23802 0.52779C 9.965 1.26682 10.9552 2.62269 11.2342 4.46928C 11.692 7.48452 9.75674 10.0189 6.74484 10.4505C 5.49136 10.6298 4.27324 10.5648 3.10817 10.0563C 1.48925 9.35279 0.4676 8.13487 0.0962703 6.38682C 0.0746585 6.28828 0.0962707 6.16806 0 6.0912L 0 4.44366Z"/>
<path id="path3_fill" d="M 10.0376 30.9949C 6.81157 30.9949 3.58749 30.9949 0.361434 30.9949C 0.0844102 30.9949 0.0215412 30.9102 0.0254706 30.6481C 0.0372588 29.6627 0.0254706 28.6773 0.0254706 27.692C 0.0254706 24.7267 0.0254706 21.7613 0.0254706 18.796C 0.0254706 18.6876 0.0254706 18.5812 0.0254706 18.4728C 0.0254706 13.743 0.0254706 9.01324 0.0254706 4.28345C 0.0254706 3.33356 0.0136801 2.38563 0.00778593 1.43573C 0.00778593 1.41602 0.00778593 1.39631 0.00778593 1.37661C -0.0177553 0.724289 -0.0177524 0.72429 0.624707 0.72429C 3.65036 0.72429 6.67535 0.72429 9.69969 0.72429C 9.95707 0.72429 10.0494 0.777499 10.0455 1.05932C 10.0298 2.33045 10.0455 3.60158 10.0455 4.87665C 10.1752 4.87665 10.1869 4.77417 10.2302 4.70914C 11.1477 3.34735 12.246 2.17279 13.6802 1.3431C 14.9037 0.645237 16.2613 0.216625 17.6627 0.0857671C 19.495 -0.126973 21.3515 0.0571683 23.1069 0.625752C 26.0736 1.61113 28.1051 3.61734 29.3487 6.45916C 30.0076 8.018 30.4129 9.67278 30.5492 11.3604C 30.6278 12.1802 30.6474 12.9981 30.6474 13.8199C 30.6474 19.4181 30.6474 25.017 30.6474 30.6166C 30.6474 30.7427 30.6474 30.8708 30.6474 30.9969C 27.4292 30.9969 24.213 30.9969 20.9948 30.9969C 20.7119 30.9969 20.6392 30.9201 20.6392 30.6382C 20.6471 25.22 20.6471 19.8018 20.6392 14.3835C 20.6392 14.2613 20.6863 14.1273 20.5881 14.017C 20.4918 12.7439 20.3072 11.4924 19.6981 10.3455C 18.9319 8.90288 17.7196 8.16188 16.1145 8.01605C 14.7077 7.88795 13.4091 8.17371 12.301 9.07237C 11.0023 10.1228 10.1987 11.4589 10.0907 13.1735C 10.0553 13.7312 10.0494 14.287 10.0494 14.8427C 10.0494 20.098 10.0494 25.3534 10.0494 30.6087C 10.0455 30.7407 10.0396 30.8688 10.0376 30.9949Z"/>
<path id="path4_fill" d="M 10.0554 0.0886925C 9.96701 0.202996 10.0102 0.335038 10.0102 0.457224C 10.0102 10.2597 10.0102 20.0615 10.0102 29.8627C 10.0102 30.2746 10.0102 30.2746 9.60354 30.2746L 0.00200954 30.2746C 0.00200954 30.1662 0.00200954 30.0598 0.00200954 29.9514C 0.00200954 20.1056 0.00200954 10.2591 0.00200954 0.411898C 0.00200954 -0.0394031 -0.053003 0.0177485 0.412633 0.0177485C 3.52473 0.0177485 6.63748 0.0177485 9.75089 0.0177485C 9.84716 0.0157778 9.98076 -0.0512305 10.0554 0.0886925Z"/>
</defs>
</svg>
