<svg width="63" height="46" viewBox="0 0 63 46" version="1.1" xmlns="http://www.w3.org/2000/svg" xmlns:xlink="http://www.w3.org/1999/xlink">
<title>mail</title>
<desc>Created using Figma</desc>
<g id="Canvas" transform="translate(-1875 -754)">
<g id="mail">
<g id="Canvas">
<g id="mail">
<g id="Vector">
<g id="Vector">
<use xlink:href="#path0_fill" transform="translate(1878.52 754.01)" fill="#3C7A89" class="svgInternalID"/>
</g>
</g>
<g id="Vector">
<g id="Vector">
<use xlink:href="#path1_fill" transform="translate(1878.53 780.07)" fill="#3C7A89" class="svgInternalID"/>
</g>
</g>
<g id="Vector">
<g id="Vector">
<use xlink:href="#path2_fill" transform="translate(1875 757.56)" fill="#3C7A89" class="svgInternalID"/>
</g>
</g>
<g id="Vector">
<g id="Vector">
<use xlink:href="#path3_fill" transform="translate(1919.16 757.55)" fill="#3C7A89" class="svgInternalID"/>
</g>
</g>
</g>
</g>
</g>
</g>
<defs>
<path id="path0_fill" d="M 0.0157577 0L 55.9519 0C 55.9929 0.0648925 55.9519 0.110122 55.9147 0.153384C 55.8775 0.196645 55.7973 0.275302 55.7386 0.334296C 47.1261 8.99843 38.5076 17.6619 29.8833 26.3247C 29.3855 26.8365 28.711 27.1364 27.9995 27.1624C 27.6729 27.1719 27.3487 27.1046 27.0526 26.9658C 26.6488 26.7884 26.2812 26.537 25.9689 26.2244C 17.4072 17.6036 8.84221 8.98859 0.273978 0.379523C 0.199642 0.304798 0.123349 0.232041 0.0529248 0.153384C 0.0138005 0.110122 -0.0214105 0.0629261 0.0157577 0Z"/>
<path id="path1_fill" d="M 0 18.9314C 0.0195622 18.8665 0.0762926 18.8331 0.119329 18.7879C 6.32054 12.553 12.5217 6.31804 18.723 0.0831119C 18.8188 -0.0152101 18.8697 -0.0270088 18.9753 0.0831119C 20.2521 1.37441 21.5321 2.66243 22.8154 3.94717C 23.3266 4.42376 23.9055 4.82138 24.5329 5.12703C 25.3124 5.54799 26.1603 5.82568 27.0369 5.94703C 28.5529 6.14262 30.0916 5.85076 31.4325 5.11326C 31.9423 4.84248 32.428 4.52799 32.884 4.17331C 32.9331 4.13382 32.9795 4.09113 33.0229 4.04549C 34.3414 2.72142 35.6586 1.39604 36.9745 0.0693483C 37.0684 -0.0270072 37.1134 -0.0191414 37.2034 0.0693483C 43.4111 6.31345 49.6195 12.5562 55.8285 18.7977C 55.8696 18.839 55.9204 18.8705 55.9381 18.9295L 0 18.9314Z"/>
<path id="path2_fill" d="M 0 0C 0.0586865 0.017698 0.0899864 0.0688249 0.131067 0.11012C 6.3401 6.35553 12.5459 12.595 18.7484 18.8287C 18.8462 18.927 18.8462 18.9722 18.7484 19.0705C 12.5446 25.3068 6.3388 31.5482 0.131067 37.795C 0.0919426 37.8343 0.0606428 37.8874 0 37.9051L 0 0Z"/>
<path id="path3_fill" d="M 18.8315 37.8992C 18.7728 37.8815 18.7415 37.8304 18.7005 37.7891C 12.4914 31.5489 6.28239 25.3094 0.0733582 19.0705C -0.0244527 18.9722 -0.0244527 18.927 0.0733582 18.8287C 6.2837 12.5911 12.4927 6.3516 18.7005 0.11012C 18.7396 0.0707913 18.7728 0.017698 18.8315 0L 18.8315 37.8992Z"/>
</defs>
</svg>
