<svg width="63" height="46" viewBox="0 0 63 46" version="1.1" xmlns="http://www.w3.org/2000/svg" xmlns:xlink="http://www.w3.org/1999/xlink">
<title>mail</title>
<desc>Created using Figma</desc>
<g id="Canvas" transform="translate(34 -1938)">
<g id="mail">
<g id="Vector">
<use xlink:href="#path0_fill" transform="translate(-30.4848 1938.52)" fill="#247BA0"/>
</g>
<g id="Vector">
<use xlink:href="#path1_fill" transform="translate(-34 1938.51)" fill="#F6F6F6"/>
</g>
<g id="Vector">
<use xlink:href="#path2_fill" transform="translate(-30.469 1964.58)" fill="#247BA0"/>
</g>
<g id="Vector">
<use xlink:href="#path3_fill" transform="translate(-33.9961 1942.07)" fill="#247BA0"/>
</g>
<g id="Vector">
<use xlink:href="#path4_fill" transform="translate(10.1626 1942.06)" fill="#247BA0"/>
</g>
</g>
</g>
<defs>
<path id="path0_fill" d="M 0.0157577 0L 55.9519 0C 55.9929 0.0648925 55.9519 0.110122 55.9147 0.153384C 55.8775 0.196645 55.7973 0.275302 55.7386 0.334296C 47.1261 8.99843 38.5076 17.6619 29.8833 26.3247C 29.3855 26.8365 28.711 27.1364 27.9995 27.1624C 27.6729 27.1719 27.3487 27.1046 27.0526 26.9658C 26.6488 26.7884 26.2812 26.537 25.9689 26.2244C 17.4072 17.6036 8.84221 8.98859 0.273978 0.379523C 0.199642 0.304798 0.123349 0.232041 0.0529248 0.153384C 0.0138005 0.110122 -0.0214105 0.0629261 0.0157577 0Z"/>
<path id="path1_fill" d="M 3.53097 0.00983154C 3.54858 0.0688247 3.59944 0.102255 3.64052 0.141584C 12.3327 8.87913 21.028 17.6134 29.7267 26.3444C 30.5092 27.131 31.5284 27.3394 32.5339 26.838C 32.8701 26.6769 33.1775 26.461 33.4435 26.1989C 42.0626 17.5295 50.683 8.86209 59.3047 0.196644C 59.3725 0.143355 59.4285 0.0763678 59.469 2.40044e-07C 60.6075 2.40044e-07 61.748 2.40044e-07 62.8865 2.40044e-07C 62.9804 2.40044e-07 63 0.019665 63 0.114054C 63 1.25852 63 2.40495 63 3.54942C 62.9455 3.67474 62.8648 3.78676 62.7633 3.87782L 44.4218 22.3152C 44.4008 22.3386 44.3786 22.3609 44.3553 22.382C 44.2536 22.4646 44.2555 22.5452 44.3553 22.6278C 44.3925 22.6573 44.4218 22.6947 44.4551 22.7281L 62.7672 41.134C 62.8638 41.2226 62.9411 41.3304 62.9941 41.4506C 62.9941 42.595 62.9941 43.7415 62.9941 44.8859C 62.9941 44.9803 62.9746 45 62.8807 45C 61.7421 45 60.6017 45 59.4632 45C 59.3331 44.9433 59.2175 44.858 59.1247 44.7503L 40.881 26.4053C 40.5935 26.1163 40.6346 26.1202 40.3509 26.4053C 39.23 27.5321 38.1013 28.6491 36.9921 29.7896C 36.5151 30.2721 35.9763 30.6888 35.3899 31.0285C 34.5742 31.5218 33.6771 31.8641 32.7412 32.0392C 31.6791 32.2306 30.5875 32.174 29.5506 31.874C 28.4528 31.5447 27.4262 31.0111 26.5244 30.3009C 26.4632 30.2506 26.4057 30.196 26.3522 30.1376L 22.5884 26.3542C 22.5474 26.3129 22.5082 26.2716 22.4633 26.2323C 22.4524 26.2204 22.4393 26.211 22.4246 26.2045C 22.41 26.198 22.3942 26.1947 22.3782 26.1947C 22.3622 26.1947 22.3463 26.198 22.3317 26.2045C 22.317 26.211 22.3039 26.2204 22.2931 26.2323C 22.2305 26.2874 22.1718 26.3503 22.1131 26.4093L 3.8694 44.7483C 3.77669 44.856 3.66102 44.9414 3.53097 44.998C 2.39441 44.998 1.25785 44.998 0.121285 44.998C 0.0234743 44.998 -1.19398e-07 44.9764 -1.19398e-07 44.8761C -1.19398e-07 43.7336 -1.19398e-07 42.5911 -1.19398e-07 41.4486C 0.0545152 41.3233 0.135248 41.2113 0.236702 41.1202L 18.5645 22.6966C 18.7601 22.5 18.7601 22.5 18.5645 22.3034L 0.242571 3.88569C 0.140501 3.7947 0.0591053 3.6827 0.00391241 3.55729C 0.00391241 2.41282 0.00391241 1.26639 0.00391241 0.121919C 0.00391241 0.0275294 0.023475 0.00786618 0.117373 0.00786618C 1.25394 0.0117991 2.39246 0.00983154 3.53097 0.00983154Z"/>
<path id="path2_fill" d="M 0 18.9314C 0.0195622 18.8665 0.0762926 18.8331 0.119329 18.7879C 6.32054 12.553 12.5217 6.31804 18.723 0.0831119C 18.8188 -0.0152101 18.8697 -0.0270088 18.9753 0.0831119C 20.2521 1.37441 21.5321 2.66243 22.8154 3.94717C 23.3266 4.42376 23.9055 4.82138 24.5329 5.12703C 25.3124 5.54799 26.1603 5.82568 27.0369 5.94703C 28.5529 6.14262 30.0916 5.85076 31.4325 5.11326C 31.9423 4.84248 32.428 4.52799 32.884 4.17331C 32.9331 4.13382 32.9795 4.09113 33.0229 4.04549C 34.3414 2.72142 35.6586 1.39604 36.9745 0.0693483C 37.0684 -0.0270072 37.1134 -0.0191414 37.2034 0.0693483C 43.4111 6.31345 49.6195 12.5562 55.8285 18.7977C 55.8696 18.839 55.9204 18.8705 55.9381 18.9295L 0 18.9314Z"/>
<path id="path3_fill" d="M 0 0C 0.0586865 0.017698 0.0899864 0.0688249 0.131067 0.11012C 6.3401 6.35553 12.5459 12.595 18.7484 18.8287C 18.8462 18.927 18.8462 18.9722 18.7484 19.0705C 12.5446 25.3068 6.3388 31.5482 0.131067 37.795C 0.0919426 37.8343 0.0606428 37.8874 0 37.9051L 0 0Z"/>
<path id="path4_fill" d="M 18.8315 37.8992C 18.7728 37.8815 18.7415 37.8304 18.7005 37.7891C 12.4914 31.5489 6.28239 25.3094 0.0733582 19.0705C -0.0244527 18.9722 -0.0244527 18.927 0.0733582 18.8287C 6.2837 12.5911 12.4927 6.3516 18.7005 0.11012C 18.7396 0.0707913 18.7728 0.017698 18.8315 0L 18.8315 37.8992Z"/>
</defs>
</svg>
