<svg width="90" height="91" viewBox="0 0 90 91" version="1.1" xmlns="http://www.w3.org/2000/svg" xmlns:xlink="http://www.w3.org/1999/xlink">
<title>html-06</title>
<desc>Created using Figma</desc>
<g id="Canvas" transform="translate(-46 -1355)">
<g id="html-06">
<g id="Vector">
<use xlink:href="#path0_fill" transform="translate(46 1355.65)" fill="#F6F6F6"/>
<mask id="mask0_outline_ins">
<use xlink:href="#path0_fill" fill="white" transform="translate(46 1355.65)"/>
</mask>
<g mask="url(#mask0_outline_ins)">
<use xlink:href="#path1_stroke_2x" transform="translate(46 1355.65)" fill="#C18D8D"/>
</g>
</g>
<g id="PHP">
<use xlink:href="#path2_fill" transform="translate(74.5 1389)" fill="#888888"/>
</g>
</g>
</g>
<defs>
<path id="path0_fill" d="M 90 0L 0 0L 0 90L 90 90L 90 0Z"/>
<path id="path1_stroke_2x" d="M 0 0L 0 -2L -2 -2L -2 0L 0 0ZM 90 0L 92 0L 92 -2L 90 -2L 90 0ZM 90 90L 90 92L 92 92L 92 90L 90 90ZM 0 90L -2 90L -2 92L 0 92L 0 90ZM 0 2L 90 2L 90 -2L 0 -2L 0 2ZM 88 0L 88 90L 92 90L 92 0L 88 0ZM 90 88L 0 88L 0 92L 90 92L 90 88ZM 2 90L 2 0L -2 0L -2 90L 2 90Z"/>
<path id="path2_fill" d="M 3.12891 14.2363L 3.12891 19L 1.65234 19L 1.65234 6.39648L 5.11523 6.39648C 6.46289 6.39648 7.50586 6.72461 8.24414 7.38086C 8.98828 8.03711 9.36035 8.96289 9.36035 10.1582C 9.36035 11.3535 8.94727 12.332 8.12109 13.0938C 7.30078 13.8555 6.19043 14.2363 4.79004 14.2363L 3.12891 14.2363ZM 3.12891 7.73242L 3.12891 12.9004L 4.67578 12.9004C 5.69531 12.9004 6.47168 12.6689 7.00488 12.2061C 7.54395 11.7373 7.81348 11.0781 7.81348 10.2285C 7.81348 8.56445 6.8291 7.73242 4.86035 7.73242L 3.12891 7.73242ZM 21.2168 19L 19.7402 19L 19.7402 13.252L 13.2188 13.252L 13.2188 19L 11.7422 19L 11.7422 6.39648L 13.2188 6.39648L 13.2188 11.9248L 19.7402 11.9248L 19.7402 6.39648L 21.2168 6.39648L 21.2168 19ZM 25.998 14.2363L 25.998 19L 24.5215 19L 24.5215 6.39648L 27.9844 6.39648C 29.332 6.39648 30.375 6.72461 31.1133 7.38086C 31.8574 8.03711 32.2295 8.96289 32.2295 10.1582C 32.2295 11.3535 31.8164 12.332 30.9902 13.0938C 30.1699 13.8555 29.0596 14.2363 27.6592 14.2363L 25.998 14.2363ZM 25.998 7.73242L 25.998 12.9004L 27.5449 12.9004C 28.5645 12.9004 29.3408 12.6689 29.874 12.2061C 30.4131 11.7373 30.6826 11.0781 30.6826 10.2285C 30.6826 8.56445 29.6982 7.73242 27.7295 7.73242L 25.998 7.73242Z"/>
</defs>
</svg>
