<svg width="60" height="60" viewBox="0 0 60 60" version="1.1" xmlns="http://www.w3.org/2000/svg" xmlns:xlink="http://www.w3.org/1999/xlink">
<title>ps</title>
<desc>Created using Figma</desc>
<g id="Canvas" transform="translate(75 -1701)">
<g id="ps">
<g id="Vector">
<use xlink:href="#path0_fill" transform="translate(-75 1701)" fill="#F6F6F6"/>
<mask id="mask0_outline_ins">
<use xlink:href="#path0_fill" fill="white" transform="translate(-75 1701)"/>
</mask>
<g mask="url(#mask0_outline_ins)">
<use xlink:href="#path1_stroke_2x" transform="translate(-75 1701)" fill="#C18D8D"/>
</g>
</g>
<g id="PS">
<use xlink:href="#path2_fill" transform="translate(-53 1721.5)" fill="#888888"/>
</g>
</g>
</g>
<defs>
<path id="path0_fill" d="M 60 0L 0 0L 0 60L 60 60L 60 0Z"/>
<path id="path1_stroke_2x" d="M 0 0L 0 -2L -2 -2L -2 0L 0 0ZM 60 0L 62 0L 62 -2L 60 -2L 60 0ZM 60 60L 60 62L 62 62L 62 60L 60 60ZM 0 60L -2 60L -2 62L 0 62L 0 60ZM 0 2L 60 2L 60 -2L 0 -2L 0 2ZM 58 0L 58 60L 62 60L 62 0L 58 0ZM 60 58L 0 58L 0 62L 60 62L 60 58ZM 2 60L 2 0L -2 0L -2 60L 2 60Z"/>
<path id="path2_fill" d="M 2.43359 11.2949L 2.43359 15L 1.28516 15L 1.28516 5.19727L 3.97852 5.19727C 5.02669 5.19727 5.83789 5.45247 6.41211 5.96289C 6.99089 6.47331 7.28027 7.19336 7.28027 8.12305C 7.28027 9.05273 6.95898 9.8138 6.31641 10.4062C 5.67839 10.9987 4.81478 11.2949 3.72559 11.2949L 2.43359 11.2949ZM 2.43359 6.23633L 2.43359 10.2559L 3.63672 10.2559C 4.42969 10.2559 5.03353 10.0758 5.44824 9.71582C 5.86751 9.35124 6.07715 8.83854 6.07715 8.17773C 6.07715 6.88346 5.31152 6.23633 3.78027 6.23633L 2.43359 6.23633ZM 8.6748 14.6035L 8.6748 13.25C 8.82975 13.3867 9.01432 13.5098 9.22852 13.6191C 9.44727 13.7285 9.67513 13.8219 9.91211 13.8994C 10.1536 13.9723 10.3952 14.0293 10.6367 14.0703C 10.8783 14.1113 11.1016 14.1318 11.3066 14.1318C 12.013 14.1318 12.5394 14.002 12.8857 13.7422C 13.2367 13.4779 13.4121 13.0996 13.4121 12.6074C 13.4121 12.3431 13.3529 12.113 13.2344 11.917C 13.1204 11.721 12.9609 11.5433 12.7559 11.3838C 12.5508 11.2197 12.307 11.0648 12.0244 10.9189C 11.7464 10.7686 11.4456 10.6113 11.1221 10.4473C 10.7803 10.2741 10.4613 10.0986 10.165 9.9209C 9.86882 9.74316 9.61133 9.5472 9.39258 9.33301C 9.17383 9.11882 9.00065 8.87728 8.87305 8.6084C 8.75 8.33496 8.68848 8.01595 8.68848 7.65137C 8.68848 7.20475 8.78646 6.81738 8.98242 6.48926C 9.17839 6.15658 9.43587 5.88314 9.75488 5.66895C 10.0739 5.45475 10.4362 5.29525 10.8418 5.19043C 11.252 5.08561 11.6689 5.0332 12.0928 5.0332C 13.0589 5.0332 13.763 5.14941 14.2051 5.38184L 14.2051 6.67383C 13.6263 6.27279 12.8835 6.07227 11.9766 6.07227C 11.7259 6.07227 11.4753 6.09961 11.2246 6.1543C 10.974 6.20443 10.7507 6.28874 10.5547 6.40723C 10.3587 6.52572 10.1992 6.67839 10.0762 6.86523C 9.95312 7.05208 9.8916 7.27995 9.8916 7.54883C 9.8916 7.79948 9.93717 8.01595 10.0283 8.19824C 10.124 8.38053 10.263 8.54688 10.4453 8.69727C 10.6276 8.84766 10.8486 8.99349 11.1084 9.13477C 11.3727 9.27604 11.6758 9.43099 12.0176 9.59961C 12.3685 9.77279 12.7012 9.95508 13.0156 10.1465C 13.3301 10.3379 13.6058 10.5498 13.8428 10.7822C 14.0798 11.0146 14.2666 11.2721 14.4033 11.5547C 14.5446 11.8372 14.6152 12.1608 14.6152 12.5254C 14.6152 13.0085 14.5195 13.4186 14.3281 13.7559C 14.1413 14.0885 13.8861 14.3597 13.5625 14.5693C 13.2435 14.779 12.8743 14.9294 12.4551 15.0205C 12.0358 15.1162 11.5938 15.1641 11.1289 15.1641C 10.974 15.1641 10.7826 15.1504 10.5547 15.123C 10.3268 15.1003 10.0944 15.0638 9.85742 15.0137C 9.62044 14.9681 9.39486 14.9111 9.18066 14.8428C 8.97103 14.7699 8.80241 14.6901 8.6748 14.6035Z"/>
</defs>
</svg>
