<svg width="60" height="60" viewBox="0 0 60 60" version="1.1" xmlns="http://www.w3.org/2000/svg" xmlns:xlink="http://www.w3.org/1999/xlink">
<title>sass</title>
<desc>Created using Figma</desc>
<g id="Canvas" transform="translate(-105 -1701)">
<g id="sass">
<g id="Vector">
<use xlink:href="#path0_fill" transform="translate(105 1701)" fill="#F6F6F6"/>
<mask id="mask0_outline_ins">
<use xlink:href="#path0_fill" fill="white" transform="translate(105 1701)"/>
</mask>
<g mask="url(#mask0_outline_ins)">
<use xlink:href="#path1_stroke_2x" transform="translate(105 1701)" fill="#C18D8D"/>
</g>
</g>
<g id="Sass">
<use xlink:href="#path2_fill" transform="translate(121.5 1721.5)" fill="#888888"/>
</g>
</g>
</g>
<defs>
<path id="path0_fill" d="M 60 0L 0 0L 0 60L 60 60L 60 0Z"/>
<path id="path1_stroke_2x" d="M 0 0L 0 -2L -2 -2L -2 0L 0 0ZM 60 0L 62 0L 62 -2L 60 -2L 60 0ZM 60 60L 60 62L 62 62L 62 60L 60 60ZM 0 60L -2 60L -2 62L 0 62L 0 60ZM 0 2L 60 2L 60 -2L 0 -2L 0 2ZM 58 0L 58 60L 62 60L 62 0L 58 0ZM 60 58L 0 58L 0 62L 60 62L 60 58ZM 2 60L 2 0L -2 0L -2 60L 2 60Z"/>
<path id="path2_fill" d="M 0.827148 14.6035L 0.827148 13.25C 0.982096 13.3867 1.16667 13.5098 1.38086 13.6191C 1.59961 13.7285 1.82747 13.8219 2.06445 13.8994C 2.30599 13.9723 2.54753 14.0293 2.78906 14.0703C 3.0306 14.1113 3.25391 14.1318 3.45898 14.1318C 4.16536 14.1318 4.69173 14.002 5.03809 13.7422C 5.389 13.4779 5.56445 13.0996 5.56445 12.6074C 5.56445 12.3431 5.50521 12.113 5.38672 11.917C 5.27279 11.721 5.11328 11.5433 4.9082 11.3838C 4.70312 11.2197 4.45931 11.0648 4.17676 10.9189C 3.89876 10.7686 3.59798 10.6113 3.27441 10.4473C 2.93262 10.2741 2.61361 10.0986 2.31738 9.9209C 2.02116 9.74316 1.76367 9.5472 1.54492 9.33301C 1.32617 9.11882 1.15299 8.87728 1.02539 8.6084C 0.902344 8.33496 0.84082 8.01595 0.84082 7.65137C 0.84082 7.20475 0.938802 6.81738 1.13477 6.48926C 1.33073 6.15658 1.58822 5.88314 1.90723 5.66895C 2.22624 5.45475 2.58854 5.29525 2.99414 5.19043C 3.4043 5.08561 3.82129 5.0332 4.24512 5.0332C 5.21126 5.0332 5.91536 5.14941 6.35742 5.38184L 6.35742 6.67383C 5.77865 6.27279 5.03581 6.07227 4.12891 6.07227C 3.87826 6.07227 3.6276 6.09961 3.37695 6.1543C 3.1263 6.20443 2.90299 6.28874 2.70703 6.40723C 2.51107 6.52572 2.35156 6.67839 2.22852 6.86523C 2.10547 7.05208 2.04395 7.27995 2.04395 7.54883C 2.04395 7.79948 2.08952 8.01595 2.18066 8.19824C 2.27637 8.38053 2.41536 8.54688 2.59766 8.69727C 2.77995 8.84766 3.00098 8.99349 3.26074 9.13477C 3.52507 9.27604 3.82812 9.43099 4.16992 9.59961C 4.52083 9.77279 4.85352 9.95508 5.16797 10.1465C 5.48242 10.3379 5.75814 10.5498 5.99512 10.7822C 6.2321 11.0146 6.41895 11.2721 6.55566 11.5547C 6.69694 11.8372 6.76758 12.1608 6.76758 12.5254C 6.76758 13.0085 6.67188 13.4186 6.48047 13.7559C 6.29362 14.0885 6.03841 14.3597 5.71484 14.5693C 5.39583 14.779 5.02669 14.9294 4.60742 15.0205C 4.18815 15.1162 3.74609 15.1641 3.28125 15.1641C 3.1263 15.1641 2.9349 15.1504 2.70703 15.123C 2.47917 15.1003 2.24674 15.0638 2.00977 15.0137C 1.77279 14.9681 1.5472 14.9111 1.33301 14.8428C 1.12337 14.7699 0.954753 14.6901 0.827148 14.6035ZM 13.583 15L 12.4619 15L 12.4619 13.9062L 12.4346 13.9062C 11.9469 14.7448 11.2292 15.1641 10.2812 15.1641C 9.58398 15.1641 9.03711 14.9795 8.64062 14.6104C 8.2487 14.2412 8.05273 13.7513 8.05273 13.1406C 8.05273 11.8327 8.82292 11.0716 10.3633 10.8574L 12.4619 10.5635C 12.4619 9.37402 11.9811 8.7793 11.0195 8.7793C 10.1764 8.7793 9.41536 9.06641 8.73633 9.64062L 8.73633 8.49219C 9.42448 8.05469 10.2174 7.83594 11.1152 7.83594C 12.7604 7.83594 13.583 8.70638 13.583 10.4473L 13.583 15ZM 12.4619 11.459L 10.7734 11.6914C 10.2539 11.7643 9.86198 11.8942 9.59766 12.0811C 9.33333 12.2633 9.20117 12.5892 9.20117 13.0586C 9.20117 13.4004 9.32194 13.6807 9.56348 13.8994C 9.80957 14.1136 10.1354 14.2207 10.541 14.2207C 11.097 14.2207 11.555 14.027 11.915 13.6396C 12.2796 13.2477 12.4619 12.7533 12.4619 12.1562L 12.4619 11.459ZM 15.2715 14.7471L 15.2715 13.5439C 15.8822 13.9951 16.5544 14.2207 17.2881 14.2207C 18.2725 14.2207 18.7646 13.8926 18.7646 13.2363C 18.7646 13.0495 18.7214 12.8923 18.6348 12.7646C 18.5527 12.6325 18.4388 12.5163 18.293 12.416C 18.1517 12.3158 17.9831 12.2269 17.7871 12.1494C 17.5957 12.0674 17.3883 11.9831 17.165 11.8965C 16.8551 11.7734 16.5817 11.6504 16.3447 11.5273C 16.1123 11.3997 15.9163 11.2585 15.7568 11.1035C 15.6019 10.944 15.4834 10.764 15.4014 10.5635C 15.3239 10.363 15.2852 10.1283 15.2852 9.85938C 15.2852 9.53125 15.3604 9.24186 15.5107 8.99121C 15.6611 8.736 15.8617 8.52409 16.1123 8.35547C 16.363 8.18229 16.6478 8.05241 16.9668 7.96582C 17.2904 7.87923 17.623 7.83594 17.9648 7.83594C 18.571 7.83594 19.1133 7.94076 19.5918 8.15039L 19.5918 9.28516C 19.0768 8.94792 18.4844 8.7793 17.8145 8.7793C 17.6048 8.7793 17.4157 8.80436 17.2471 8.85449C 17.0785 8.90007 16.9326 8.96615 16.8096 9.05273C 16.6911 9.13932 16.5977 9.24414 16.5293 9.36719C 16.4655 9.48568 16.4336 9.61784 16.4336 9.76367C 16.4336 9.94596 16.4655 10.0986 16.5293 10.2217C 16.5977 10.3447 16.6956 10.4541 16.8232 10.5498C 16.9508 10.6455 17.1058 10.7321 17.2881 10.8096C 17.4704 10.887 17.6777 10.9714 17.9102 11.0625C 18.2201 11.181 18.498 11.304 18.7441 11.4316C 18.9902 11.5547 19.1999 11.696 19.373 11.8555C 19.5462 12.0104 19.6784 12.1904 19.7695 12.3955C 19.8652 12.6006 19.9131 12.8444 19.9131 13.127C 19.9131 13.4733 19.8356 13.7741 19.6807 14.0293C 19.5303 14.2845 19.3275 14.4964 19.0723 14.665C 18.8171 14.8337 18.5231 14.959 18.1904 15.041C 17.8577 15.123 17.5091 15.1641 17.1445 15.1641C 16.4245 15.1641 15.8001 15.0251 15.2715 14.7471ZM 21.2188 14.7471L 21.2188 13.5439C 21.8294 13.9951 22.5016 14.2207 23.2354 14.2207C 24.2197 14.2207 24.7119 13.8926 24.7119 13.2363C 24.7119 13.0495 24.6686 12.8923 24.582 12.7646C 24.5 12.6325 24.3861 12.5163 24.2402 12.416C 24.099 12.3158 23.9303 12.2269 23.7344 12.1494C 23.543 12.0674 23.3356 11.9831 23.1123 11.8965C 22.8024 11.7734 22.529 11.6504 22.292 11.5273C 22.0596 11.3997 21.8636 11.2585 21.7041 11.1035C 21.5492 10.944 21.4307 10.764 21.3486 10.5635C 21.2712 10.363 21.2324 10.1283 21.2324 9.85938C 21.2324 9.53125 21.3076 9.24186 21.458 8.99121C 21.6084 8.736 21.8089 8.52409 22.0596 8.35547C 22.3102 8.18229 22.5951 8.05241 22.9141 7.96582C 23.2376 7.87923 23.5703 7.83594 23.9121 7.83594C 24.5182 7.83594 25.0605 7.94076 25.5391 8.15039L 25.5391 9.28516C 25.0241 8.94792 24.4316 8.7793 23.7617 8.7793C 23.5521 8.7793 23.363 8.80436 23.1943 8.85449C 23.0257 8.90007 22.8799 8.96615 22.7568 9.05273C 22.6383 9.13932 22.5449 9.24414 22.4766 9.36719C 22.4128 9.48568 22.3809 9.61784 22.3809 9.76367C 22.3809 9.94596 22.4128 10.0986 22.4766 10.2217C 22.5449 10.3447 22.6429 10.4541 22.7705 10.5498C 22.8981 10.6455 23.0531 10.7321 23.2354 10.8096C 23.4176 10.887 23.625 10.9714 23.8574 11.0625C 24.1673 11.181 24.4453 11.304 24.6914 11.4316C 24.9375 11.5547 25.1471 11.696 25.3203 11.8555C 25.4935 12.0104 25.6257 12.1904 25.7168 12.3955C 25.8125 12.6006 25.8604 12.8444 25.8604 13.127C 25.8604 13.4733 25.7829 13.7741 25.6279 14.0293C 25.4775 14.2845 25.2747 14.4964 25.0195 14.665C 24.7643 14.8337 24.4704 14.959 24.1377 15.041C 23.805 15.123 23.4564 15.1641 23.0918 15.1641C 22.3717 15.1641 21.7474 15.0251 21.2188 14.7471Z"/>
</defs>
</svg>
