<svg width="90" height="90" viewBox="0 0 90 90" version="1.1" xmlns="http://www.w3.org/2000/svg" xmlns:xlink="http://www.w3.org/1999/xlink">
<title>html-12</title>
<desc>Created using Figma</desc>
<g id="Canvas" transform="translate(-46 -1536)">
<g id="html-12">
<g id="Vector">
<use xlink:href="#path0_fill" transform="translate(46 1536)" fill="#F6F6F6"/>
<mask id="mask0_outline_ins">
<use xlink:href="#path0_fill" fill="white" transform="translate(46 1536)"/>
</mask>
<g mask="url(#mask0_outline_ins)">
<use xlink:href="#path1_stroke_2x" transform="translate(46 1536)" fill="#C18D8D"/>
</g>
</g>
<g id="SQL">
<use xlink:href="#path2_fill" transform="translate(75 1569)" fill="#888888"/>
</g>
</g>
</g>
<defs>
<path id="path0_fill" d="M 90 0L 0 0L 0 90L 90 90L 90 0Z"/>
<path id="path1_stroke_2x" d="M 0 0L 0 -2L -2 -2L -2 0L 0 0ZM 90 0L 92 0L 92 -2L 90 -2L 90 0ZM 90 90L 90 92L 92 92L 92 90L 90 90ZM 0 90L -2 90L -2 92L 0 92L 0 90ZM 0 2L 90 2L 90 -2L 0 -2L 0 2ZM 88 0L 88 90L 92 90L 92 0L 88 0ZM 90 88L 0 88L 0 92L 90 92L 90 88ZM 2 90L 2 0L -2 0L -2 90L 2 90Z"/>
<path id="path2_fill" d="M 1.06348 18.4902L 1.06348 16.75C 1.2627 16.9258 1.5 17.084 1.77539 17.2246C 2.05664 17.3652 2.34961 17.4854 2.6543 17.585C 2.96484 17.6787 3.27539 17.752 3.58594 17.8047C 3.89648 17.8574 4.18359 17.8838 4.44727 17.8838C 5.35547 17.8838 6.03223 17.7168 6.47754 17.3828C 6.92871 17.043 7.1543 16.5566 7.1543 15.9238C 7.1543 15.584 7.07812 15.2881 6.92578 15.0361C 6.7793 14.7842 6.57422 14.5557 6.31055 14.3506C 6.04688 14.1396 5.7334 13.9404 5.37012 13.7529C 5.0127 13.5596 4.62598 13.3574 4.20996 13.1465C 3.77051 12.9238 3.36035 12.6982 2.97949 12.4697C 2.59863 12.2412 2.26758 11.9893 1.98633 11.7139C 1.70508 11.4385 1.48242 11.1279 1.31836 10.7822C 1.16016 10.4307 1.08105 10.0205 1.08105 9.55176C 1.08105 8.97754 1.20703 8.47949 1.45898 8.05762C 1.71094 7.62988 2.04199 7.27832 2.45215 7.00293C 2.8623 6.72754 3.32812 6.52246 3.84961 6.3877C 4.37695 6.25293 4.91309 6.18555 5.45801 6.18555C 6.7002 6.18555 7.60547 6.33496 8.17383 6.63379L 8.17383 8.29492C 7.42969 7.7793 6.47461 7.52148 5.30859 7.52148C 4.98633 7.52148 4.66406 7.55664 4.3418 7.62695C 4.01953 7.69141 3.73242 7.7998 3.48047 7.95215C 3.22852 8.10449 3.02344 8.30078 2.86523 8.54102C 2.70703 8.78125 2.62793 9.07422 2.62793 9.41992C 2.62793 9.74219 2.68652 10.0205 2.80371 10.2549C 2.92676 10.4893 3.10547 10.7031 3.33984 10.8965C 3.57422 11.0898 3.8584 11.2773 4.19238 11.459C 4.53223 11.6406 4.92188 11.8398 5.36133 12.0566C 5.8125 12.2793 6.24023 12.5137 6.64453 12.7598C 7.04883 13.0059 7.40332 13.2783 7.70801 13.5771C 8.0127 13.876 8.25293 14.207 8.42871 14.5703C 8.61035 14.9336 8.70117 15.3496 8.70117 15.8184C 8.70117 16.4395 8.57812 16.9668 8.33203 17.4004C 8.0918 17.8281 7.76367 18.1768 7.34766 18.4463C 6.9375 18.7158 6.46289 18.9092 5.92383 19.0264C 5.38477 19.1494 4.81641 19.2109 4.21875 19.2109C 4.01953 19.2109 3.77344 19.1934 3.48047 19.1582C 3.1875 19.1289 2.88867 19.082 2.58398 19.0176C 2.2793 18.959 1.98926 18.8857 1.71387 18.7979C 1.44434 18.7041 1.22754 18.6016 1.06348 18.4902ZM 16.2949 19.2109C 14.5137 19.2109 13.0811 18.6221 11.9971 17.4443C 10.9248 16.2666 10.3887 14.7344 10.3887 12.8477C 10.3887 10.8145 10.9365 9.19727 12.0322 7.99609C 13.1338 6.78906 14.625 6.18555 16.5059 6.18555C 18.2402 6.18555 19.6406 6.77148 20.707 7.94336C 21.7734 9.11523 22.3066 10.6475 22.3066 12.54C 22.3066 14.5967 21.7617 16.2227 20.6719 17.418C 20.4141 17.7051 20.1387 17.9512 19.8457 18.1562L 23.3877 20.6963L 20.707 20.6963L 18.334 18.9209C 17.7129 19.1143 17.0332 19.2109 16.2949 19.2109ZM 16.4004 7.52148C 15.0762 7.52148 14.001 7.99902 13.1748 8.9541C 12.3486 9.90918 11.9355 11.1631 11.9355 12.7158C 11.9355 14.2627 12.3369 15.5137 13.1396 16.4688C 13.9482 17.4121 15 17.8838 16.2949 17.8838C 17.6777 17.8838 18.7676 17.4326 19.5645 16.5303C 20.3613 15.6279 20.7598 14.3652 20.7598 12.7422C 20.7598 11.0723 20.373 9.78613 19.5996 8.88379C 18.8262 7.97559 17.7598 7.52148 16.4004 7.52148ZM 31.3242 19L 24.7852 19L 24.7852 6.39648L 26.2617 6.39648L 26.2617 17.6641L 31.3242 17.6641L 31.3242 19Z"/>
</defs>
</svg>
