<svg width="90" height="90" viewBox="0 0 90 90" version="1.1" xmlns="http://www.w3.org/2000/svg" xmlns:xlink="http://www.w3.org/1999/xlink">
<title>html-05</title>
<desc>Created using Figma</desc>
<g id="Canvas" transform="translate(136 -1536)">
<g id="html-05">
<g id="Vector">
<use xlink:href="#path0_fill" transform="translate(-136 1536)" fill="#F6F6F6"/>
<mask id="mask0_outline_ins">
<use xlink:href="#path0_fill" fill="white" transform="translate(-136 1536)"/>
</mask>
<g mask="url(#mask0_outline_ins)">
<use xlink:href="#path1_stroke_2x" transform="translate(-136 1536)" fill="#C18D8D"/>
</g>
</g>
<g id="WP">
<use xlink:href="#path2_fill" transform="translate(-104.5 1569)" fill="#888888"/>
</g>
</g>
</g>
<defs>
<path id="path0_fill" d="M 90 0L 0 0L 0 90L 90 90L 90 0Z"/>
<path id="path1_stroke_2x" d="M 0 0L 0 -2L -2 -2L -2 0L 0 0ZM 90 0L 92 0L 92 -2L 90 -2L 90 0ZM 90 90L 90 92L 92 92L 92 90L 90 90ZM 0 90L -2 90L -2 92L 0 92L 0 90ZM 0 2L 90 2L 90 -2L 0 -2L 0 2ZM 88 0L 88 90L 92 90L 92 0L 88 0ZM 90 88L 0 88L 0 92L 90 92L 90 88ZM 2 90L 2 0L -2 0L -2 90L 2 90Z"/>
<path id="path2_fill" d="M 16.5938 6.39648L 13.0342 19L 11.3027 19L 8.70996 9.78906C 8.59863 9.39648 8.53125 8.96875 8.50781 8.50586L 8.47266 8.50586C 8.4375 8.93945 8.36133 9.36133 8.24414 9.77148L 5.63379 19L 3.91992 19L 0.228516 6.39648L 1.85449 6.39648L 4.53516 16.0645C 4.64648 16.4688 4.7168 16.8906 4.74609 17.3301L 4.79004 17.3301C 4.81934 17.0195 4.91016 16.5977 5.0625 16.0645L 7.84863 6.39648L 9.26367 6.39648L 11.9355 16.1348C 12.0293 16.4688 12.0996 16.8613 12.1465 17.3125L 12.1816 17.3125C 12.2051 17.0078 12.2842 16.6035 12.4189 16.0996L 14.9941 6.39648L 16.5938 6.39648ZM 19.9512 14.2363L 19.9512 19L 18.4746 19L 18.4746 6.39648L 21.9375 6.39648C 23.2852 6.39648 24.3281 6.72461 25.0664 7.38086C 25.8105 8.03711 26.1826 8.96289 26.1826 10.1582C 26.1826 11.3535 25.7695 12.332 24.9434 13.0938C 24.123 13.8555 23.0127 14.2363 21.6123 14.2363L 19.9512 14.2363ZM 19.9512 7.73242L 19.9512 12.9004L 21.498 12.9004C 22.5176 12.9004 23.2939 12.6689 23.8271 12.2061C 24.3662 11.7373 24.6357 11.0781 24.6357 10.2285C 24.6357 8.56445 23.6514 7.73242 21.6826 7.73242L 19.9512 7.73242Z"/>
</defs>
</svg>
