<svg width="60" height="60" viewBox="0 0 60 60" version="1.1" xmlns="http://www.w3.org/2000/svg" xmlns:xlink="http://www.w3.org/1999/xlink">
<title>zurb</title>
<desc>Created using Figma</desc>
<g id="Canvas" transform="translate(-195 -1701)">
<g id="zurb">
<g id="Vector">
<use xlink:href="#path0_fill" transform="translate(195 1701)" fill="#F6F6F6"/>
<mask id="mask0_outline_ins">
<use xlink:href="#path0_fill" fill="white" transform="translate(195 1701)"/>
</mask>
<g mask="url(#mask0_outline_ins)">
<use xlink:href="#path1_stroke_2x" transform="translate(195 1701)" fill="#C18D8D"/>
</g>
</g>
<g id="ZURB fdn">
<use xlink:href="#path2_fill" transform="translate(207.5 1712)" fill="#888888"/>
</g>
</g>
</g>
<defs>
<path id="path0_fill" d="M 60 0L 0 0L 0 60L 60 60L 60 0Z"/>
<path id="path1_stroke_2x" d="M 0 0L 0 -2L -2 -2L -2 0L 0 0ZM 60 0L 62 0L 62 -2L 60 -2L 60 0ZM 60 60L 60 62L 62 62L 62 60L 60 60ZM 0 60L -2 60L -2 62L 0 62L 0 60ZM 0 2L 60 2L 60 -2L 0 -2L 0 2ZM 58 0L 58 60L 62 60L 62 0L 58 0ZM 60 58L 0 58L 0 62L 60 62L 60 58ZM 2 60L 2 0L -2 0L -2 60L 2 60Z"/>
<path id="path2_fill" d="M 8.17578 5.4707L 2.43359 13.9609L 8.03906 13.9609L 8.03906 15L 0.717773 15L 0.717773 14.6787L 6.41211 6.23633L 1.17578 6.23633L 1.17578 5.19727L 8.17578 5.19727L 8.17578 5.4707ZM 16.9326 11.0352C 16.9326 13.7878 15.6908 15.1641 13.207 15.1641C 10.8281 15.1641 9.63867 13.8402 9.63867 11.1924L 9.63867 5.19727L 10.7871 5.19727L 10.7871 11.1172C 10.7871 13.127 11.6348 14.1318 13.3301 14.1318C 14.9661 14.1318 15.7842 13.1611 15.7842 11.2197L 15.7842 5.19727L 16.9326 5.19727L 16.9326 11.0352ZM 26.4141 15L 25.0469 15L 23.4062 12.252C 23.2559 11.9967 23.11 11.7803 22.9688 11.6025C 22.8275 11.4202 22.6816 11.2721 22.5312 11.1582C 22.3854 11.0443 22.2259 10.9622 22.0527 10.9121C 21.8841 10.8574 21.6927 10.8301 21.4785 10.8301L 20.5352 10.8301L 20.5352 15L 19.3867 15L 19.3867 5.19727L 22.3125 5.19727C 22.7409 5.19727 23.1351 5.25195 23.4951 5.36133C 23.8597 5.46615 24.1742 5.62793 24.4385 5.84668C 24.7074 6.06543 24.917 6.33887 25.0674 6.66699C 25.2178 6.99056 25.293 7.37109 25.293 7.80859C 25.293 8.15039 25.2406 8.46484 25.1357 8.75195C 25.0355 9.03451 24.8896 9.28743 24.6982 9.51074C 24.5114 9.73405 24.2835 9.92546 24.0146 10.085C 23.7503 10.2399 23.4518 10.3607 23.1191 10.4473L 23.1191 10.4746C 23.2832 10.5475 23.4245 10.6318 23.543 10.7275C 23.666 10.8187 23.7822 10.9281 23.8916 11.0557C 24.001 11.1833 24.1081 11.3291 24.2129 11.4932C 24.3223 11.6527 24.443 11.8395 24.5752 12.0537L 26.4141 15ZM 20.5352 6.23633L 20.5352 9.79102L 22.0938 9.79102C 22.3809 9.79102 22.6452 9.74772 22.8867 9.66113C 23.1328 9.57454 23.3447 9.4515 23.5225 9.29199C 23.7002 9.12793 23.8392 8.92969 23.9395 8.69727C 24.0397 8.46029 24.0898 8.19596 24.0898 7.9043C 24.0898 7.38021 23.9189 6.97233 23.5771 6.68066C 23.2399 6.38444 22.75 6.23633 22.1074 6.23633L 20.5352 6.23633ZM 27.7676 15L 27.7676 5.19727L 30.5566 5.19727C 31.4043 5.19727 32.0765 5.40462 32.5732 5.81934C 33.07 6.23405 33.3184 6.77409 33.3184 7.43945C 33.3184 7.99544 33.168 8.47852 32.8672 8.88867C 32.5664 9.29883 32.1517 9.59049 31.623 9.76367L 31.623 9.79102C 32.2839 9.86849 32.8125 10.1191 33.209 10.543C 33.6055 10.9622 33.8037 11.5091 33.8037 12.1836C 33.8037 13.0221 33.5029 13.7012 32.9014 14.2207C 32.2998 14.7402 31.541 15 30.625 15L 27.7676 15ZM 28.916 6.23633L 28.916 9.40137L 30.0918 9.40137C 30.7207 9.40137 31.2152 9.25098 31.5752 8.9502C 31.9352 8.64486 32.1152 8.21647 32.1152 7.66504C 32.1152 6.71256 31.4886 6.23633 30.2354 6.23633L 28.916 6.23633ZM 28.916 10.4336L 28.916 13.9609L 30.4746 13.9609C 31.1491 13.9609 31.6709 13.8014 32.04 13.4824C 32.4137 13.1634 32.6006 12.7259 32.6006 12.1699C 32.6006 11.0124 31.8122 10.4336 30.2354 10.4336L 28.916 10.4336ZM 11.8125 24.6211C 11.5938 24.498 11.3454 24.4365 11.0674 24.4365C 10.2835 24.4365 9.8916 24.931 9.8916 25.9199L 9.8916 27L 11.5322 27L 11.5322 27.957L 9.8916 27.957L 9.8916 34L 8.77734 34L 8.77734 27.957L 7.58105 27.957L 7.58105 27L 8.77734 27L 8.77734 25.8652C 8.77734 25.1315 8.98926 24.5527 9.41309 24.1289C 9.83691 23.7005 10.3656 23.4863 10.999 23.4863C 11.3408 23.4863 11.612 23.5273 11.8125 23.6094L 11.8125 24.6211ZM 18.7168 34L 17.5957 34L 17.5957 32.8105L 17.5684 32.8105C 17.0488 33.7129 16.2467 34.1641 15.1621 34.1641C 14.2826 34.1641 13.5785 33.8519 13.0498 33.2275C 12.5257 32.5986 12.2637 31.7441 12.2637 30.6641C 12.2637 29.5065 12.5553 28.5791 13.1387 27.8818C 13.722 27.1846 14.499 26.8359 15.4697 26.8359C 16.4313 26.8359 17.1309 27.2142 17.5684 27.9707L 17.5957 27.9707L 17.5957 23.6367L 18.7168 23.6367L 18.7168 34ZM 17.5957 30.835L 17.5957 29.8027C 17.5957 29.2376 17.4089 28.7591 17.0352 28.3672C 16.6615 27.9753 16.1875 27.7793 15.6133 27.7793C 14.9297 27.7793 14.3919 28.0299 14 28.5312C 13.6081 29.0326 13.4121 29.7253 13.4121 30.6094C 13.4121 31.416 13.599 32.054 13.9727 32.5234C 14.3509 32.9883 14.8568 33.2207 15.4902 33.2207C 16.1146 33.2207 16.6204 32.9951 17.0078 32.5439C 17.3997 32.0928 17.5957 31.5231 17.5957 30.835ZM 26.7969 34L 25.6758 34L 25.6758 30.0078C 25.6758 28.5221 25.1335 27.7793 24.0488 27.7793C 23.4883 27.7793 23.0234 27.9912 22.6543 28.415C 22.2897 28.8343 22.1074 29.3652 22.1074 30.0078L 22.1074 34L 20.9863 34L 20.9863 27L 22.1074 27L 22.1074 28.1621L 22.1348 28.1621C 22.6634 27.278 23.429 26.8359 24.4316 26.8359C 25.1973 26.8359 25.7829 27.0843 26.1885 27.5811C 26.5941 28.0732 26.7969 28.7865 26.7969 29.7207L 26.7969 34Z"/>
</defs>
</svg>
